<svg width="100" height="100" xmlns="http://www.w3.org/2000/svg" xmlns:svg="http://www.w3.org/2000/svg">
 <!-- Created with SVG-edit - https://github.com/SVG-Edit/svgedit-->
 <defs>
  <marker id="se_marker_end_svg_1" markerUnits="strokeWidth" orient="auto" viewBox="0 0 100 100" markerWidth="5" markerHeight="5" refX="50" refY="50">
   <path id="svg_3" d="m100,50l-100,40l30,-40l-30,-40l100,40z" fill="#666666" stroke="#666666" stroke-width="10"/>
  </marker>
 </defs>
 <g class="layer">
  <title>Layer 1</title>
  <line id="svg_1" y2="49.88086" x2="85.68381" y1="50.11914" x1="4.824" stroke-width="4" stroke="#666666" fill="none" marker-end="url(#se_marker_end_svg_1)"/>
  <path transform="rotate(-180, 46.3525, 39.0977) translate(91.7578, -21.832) scale(-1, 1)" fill="none" stroke="#666666" stroke-width="4" stroke-dasharray="null" stroke-linejoin="null" stroke-linecap="null" d="m63.90435,55.90919c1.21301,1.0209 3.48722,-0.08553 3.76112,1.77803c0.52812,1.65668 -1.08459,2.95083 -2.15771,3.95393c-1.8773,0.9347 -4.04185,1.04816 -6.07191,1.47668c-2.43279,0.35312 -4.96579,0.6543 -7.06267,2.05573c-2.38887,1.49474 -5.04918,2.73794 -7.92658,2.71633c-3.96486,0.13734 -8.06715,0.00433 -11.73291,-1.6889c-2.30441,-1.03973 -4.77993,-1.56819 -7.23923,-2.07713c-2.09226,-0.27473 -1.60587,-2.53086 -2.30183,-3.92221c-0.53135,-1.59771 0.61724,-3.18804 2.29823,-3.23845c1.77739,-0.40398 3.85748,-0.4436 5.09843,-1.99522c1.27118,-1.40691 3.55321,-1.35806 4.84737,-0.01419c0.53534,0.33199 0.89274,1.1366 1.60518,0.99795c6.64466,-0.036 13.29248,0.09476 19.93417,-0.11861c1.73571,0.13797 2.45646,-2.01547 4.30246,-1.86581c0.94519,-0.02879 1.84029,1.49693 2.64589,1.94189l0,0l0,-0.00002l-0.00001,0z" id="svg_2"/>
 </g>
</svg>
