<svg width="100" height="100" xmlns="http://www.w3.org/2000/svg" xmlns:svg="http://www.w3.org/2000/svg">
 <!-- Created with SVG-edit - https://github.com/SVG-Edit/svgedit-->
 <defs>
  <marker refY="50" refX="50" markerHeight="5" markerWidth="5" viewBox="0 0 100 100" se_type="rightarrow" orient="auto" markerUnits="strokeWidth" id="se_marker_end_svg_1">
   <path stroke-width="10" stroke="#666666" fill="#666666" d="m100,50l-100,40l30,-40l-30,-40z"/>
  </marker>
 </defs>
 <g class="layer">
  <title>Layer 1</title>
  <line marker-end="url(#se_marker_end_svg_1)" fill="none" stroke="#666666" stroke-width="4" x1="4.824" y1="50.11914" x2="85.68381" y2="49.88086" id="svg_1"/>
  <path id="svg_2" d="m45.6535,31.76494c-1.49316,-0.11443 -4.18161,1.60242 -3.58195,-1.33191c1.03902,-1.80092 3.85251,-0.94466 3.5325,1.15382l0.03638,0.13129l0.01308,0.04679l0,0zm3.61208,-3.89261c-1.4255,2.44163 -4.63629,2.61629 -7.04739,3.52555c-1.11689,0.64058 -5.64475,1.05689 -3.92073,-0.89874c2.46225,-1.63202 5.49005,-2.02591 8.26206,-2.91584c0.89236,-0.20974 1.92737,-0.29203 2.70606,0.28903zm-7.37194,2.58219c-1.08733,-3.73204 -2.17466,-7.46409 -3.26197,-11.19603c1.33003,-1.80947 4.26291,-1.02481 3.8565,1.38716c0.8452,2.90136 1.69036,5.80287 2.53612,8.70433m-1.17199,1.96367c4.75013,16.64375 10.27301,33.09167 17.1744,48.9749m-15.91999,-49.40773c4.79774,15.66267 9.70821,31.34204 16.33115,46.34893c0.09092,1.16264 3.11513,4.6487 0.37397,3.74928c-0.85255,-0.40856 -2.30956,-0.13074 -2.46757,-1.32948c-6.46986,-15.63683 -12.07939,-31.62868 -16.81973,-47.87342" stroke-linecap="null" stroke-linejoin="null" stroke-dasharray="null" stroke-width="3" stroke="#666666" fill="#666666"/>
 </g>
</svg>
