<svg width="100" height="100" xmlns="http://www.w3.org/2000/svg" xmlns:svg="http://www.w3.org/2000/svg">
 <!-- Created with SVG-edit - https://github.com/SVG-Edit/svgedit-->
 <defs>
  <marker id="se_marker_end_svg_1" markerUnits="strokeWidth" orient="auto" viewBox="0 0 100 100" markerWidth="5" markerHeight="5" refX="50" refY="50">
   <path id="svg_2" d="m100,50l-100,40l30,-40l-30,-40l100,40z" fill="#666666" stroke="#666666" stroke-width="10"/>
  </marker>
 </defs>
 <g class="layer">
  <title>Layer 1</title>
  <line fill="none" stroke="#666666" stroke-width="4" x1="4.824" y1="50.11914" x2="85.68381" y2="49.88086" id="svg_1" marker-end="url(#se_marker_end_svg_1)"/>
  <path id="svg_2" d="m30.25047,71.82763c0.97224,0.57835 2.2991,1.92976 3.32672,1.4348c0.67396,-0.31926 1.06875,-2.13088 1.48718,-3.08455c3.15257,-7.16812 6.57805,-15.32159 9.0718,-22.29672c0,-0.31183 0.14282,-0.55219 -0.06995,-0.97463c1.39518,-2.62176 2.34184,-5.50111 3.86591,-8.41706c0.48225,-0.92749 0.97322,-2.21349 1.65075,-2.58322l1.24985,-0.60301c1.58951,-0.47179 2.75088,-0.45571 3.85882,0.7746c0.5619,0.62767 0.82034,1.66283 1.36379,2.28527c0.36758,0.42618 1.76792,1.47294 2.28936,1.3107c0.4045,-0.12636 0.73808,-0.59628 1.02146,-1.19256l0.98746,-2.10658c0.27723,-0.59965 0.43495,-1.17648 0.3054,-1.63668c-0.16615,-0.5929 -1.69186,-1.37572 -2.20228,-1.4991c-0.74974,-0.18467 -1.63805,0.13272 -2.4014,-0.06692c-1.50015,-0.39777 -2.14688,-1.51047 -2.67219,-3.30929c-3.70151,-2.51108 -8.6841,-4.14439 -14.48545,-2.0378c-1.57366,0.5716 -3.0826,1.00601 -4.11702,2.16715c-0.20728,0.67469 0.20305,0.8089 0.63282,0.80104c-0.33617,0.3544 -0.87961,0.55852 -0.56611,1.38934c3.54119,-1.87748 10.41678,-2.5261 10.88347,1.31705c0.10234,0.85497 -0.56028,2.03294 -0.96803,3.00605c-1.2841,3.06998 -2.85322,5.55975 -3.99198,8.34002c-0.42258,0.02806 -0.51909,0.29499 -0.74482,0.46994c-3.69535,6.22523 -7.73554,13.9914 -11.21123,20.95876c-0.4628,0.92751 -1.55843,2.29649 -1.42208,3.1227c0.20403,1.26282 1.88618,1.85085 2.85777,2.4307z" stroke-linecap="null" stroke-linejoin="null" stroke-dasharray="null" stroke-width="3" stroke="#666666" fill="none"/>
 </g>
</svg>
