<svg width="100" height="100" xmlns="http://www.w3.org/2000/svg" xmlns:svg="http://www.w3.org/2000/svg">
 <!-- Created with SVG-edit - https://github.com/SVG-Edit/svgedit-->
 <defs>
  <marker refY="50" refX="50" markerHeight="5" markerWidth="5" viewBox="0 0 100 100" se_type="rightarrow" orient="auto" markerUnits="strokeWidth" id="se_marker_end_svg_1">
   <path stroke-width="10" stroke="#666666" fill="#666666" d="m100,50l-100,40l30,-40l-30,-40z"/>
  </marker>
 </defs>
 <g class="layer">
  <title>Layer 1</title>
  <line marker-end="url(#se_marker_end_svg_1)" fill="none" stroke="#666666" stroke-width="4" x1="4.824" y1="50.11914" x2="85.68381" y2="49.88086" id="svg_1"/>
  <path transform="rotate(40.6367, 45.7305, 50.5052)" id="svg_2" d="m45.83261,30.62166c-0.41549,0 -0.78562,0.17003 -1.09759,0.47942c-0.31129,0.30939 -0.56957,0.75308 -0.78376,1.30666c-0.42893,1.10593 -0.69294,2.66059 -0.83738,4.5221c-0.14388,1.85775 -0.16815,4.02094 -0.10871,6.33635c-5.13319,2.10576 -15.54424,6.45399 -16.38091,7.42567c-1.1137,1.29261 -0.75381,2.77308 -0.30495,3.75625l17.11613,-3.48265c0.36179,4.53875 0.87574,9.03528 1.32453,12.55886c-1.67423,0.48975 -4.79828,1.45761 -5.44329,2.05716c-0.88859,0.826 -0.88859,3.49548 -0.88859,3.49548l7.00501,-0.57031c0.1649,1.15086 0.2685,1.82207 0.2685,1.82207l0.01022,0.06001l0.05497,0l0.12911,0l0.05497,0l0.01024,-0.06001c0,0 0.1036,-0.67121 0.26848,-1.82207l7.00758,0.57031c0,0 0,-2.66949 -0.88855,-3.49548c-0.64564,-0.59955 -3.7723,-1.56996 -5.4459,-2.05972c0.44753,-3.51206 0.96147,-7.9907 1.32267,-12.51664l16.91549,3.443c0.44868,-0.98317 0.81054,-2.46363 -0.30305,-3.75625c-0.82594,-0.95892 -10.9857,-5.21126 -16.18221,-7.3451c0.06202,-2.34483 0.039,-4.53746 -0.10678,-6.41692l0,-0.0051c-0.14445,-1.85896 -0.40849,-3.41235 -0.83739,-4.517c-0.21421,-0.55357 -0.46988,-0.99726 -0.78184,-1.30666c-0.31197,-0.30939 -0.68147,-0.47942 -1.09698,-0.47942l0,0z" stroke-linecap="null" stroke-linejoin="null" stroke-dasharray="null" stroke-width="3" stroke="#666666" fill="#666666"/>
 </g>
</svg>
