<svg width="100" height="100" xmlns="http://www.w3.org/2000/svg" xmlns:svg="http://www.w3.org/2000/svg">
 <!-- Created with SVG-edit - https://github.com/SVG-Edit/svgedit-->
 <defs>
  <marker id="se_marker_end_svg_1" markerUnits="strokeWidth" orient="auto" viewBox="0 0 100 100" markerWidth="5" markerHeight="5" refX="50" refY="50">
   <path id="svg_2" d="m100,50l-100,40l30,-40l-30,-40l100,40z" fill="#666666" stroke="#666666" stroke-width="10"/>
  </marker>
 </defs>
 <g class="layer">
  <title>Layer 1</title>
  <line fill="none" stroke="#666666" stroke-width="4" x1="4.824" y1="50.11914" x2="85.68381" y2="49.88086" id="svg_1" marker-end="url(#se_marker_end_svg_1)"/>
  <path id="svg_2" d="m28.57998,72.59121c-2.54941,-0.46124 -3.42847,-3.68198 -1.9086,-5.61172c2.01716,-2.98437 6.33233,-4.99643 9.71345,-3.11337c0.0674,-10.50942 0.02841,-21.0192 0.03861,-31.52902c8.43036,-1.70057 16.87893,-3.31407 25.31254,-4.9997c-0.01819,11.77867 -0.0368,23.55733 -0.05501,35.33603c-1.32098,3.56258 -5.59024,6.03285 -9.30756,4.92829c-2.21278,-0.66265 -2.74359,-3.51917 -1.51114,-5.26928c1.68746,-2.61098 4.82846,-4.40375 7.98622,-3.91447c0.90094,-0.09108 2.22811,1.36761 1.84704,-0.28271c0,-8.25621 0,-16.51241 0,-24.76864c-7.73852,1.55776 -15.49236,3.04155 -23.23454,4.58257c-0.02659,9.6078 0.06557,19.21701 -0.06922,28.82337c-0.24626,2.91802 -3.04704,4.90903 -5.66165,5.68673c-1.0328,0.17416 -2.10859,0.28239 -3.15014,0.1319l0,0zm20.18717,-39.17066c3.97602,-0.78252 7.95419,-1.55558 11.92838,-2.34685c0.506,-2.01496 -1.75778,-0.70638 -2.86453,-0.6572c-6.78912,1.34025 -13.58231,2.66048 -20.37001,4.00588c-0.50602,2.01495 1.75776,0.70675 2.86452,0.6572c2.81353,-0.55447 5.62775,-1.10714 8.44164,-1.65903l0,0z" stroke-linecap="null" stroke-linejoin="null" stroke-dasharray="null" stroke-width="3" stroke="#666666" fill="none"/>
 </g>
</svg>
