<svg width="100" height="100" xmlns="http://www.w3.org/2000/svg" xmlns:svg="http://www.w3.org/2000/svg">
 <!-- Created with SVG-edit - https://github.com/SVG-Edit/svgedit-->
 <g class="layer">
  <title>Layer 1</title>
  <path id="svg_1" d="m43.13379,14.3972c0,-3.79825 3.07684,-6.87474 6.87475,-6.87474c3.79858,0 6.87541,3.0765 6.87541,6.87474c0,3.79825 -3.07683,6.87509 -6.87541,6.87509c-3.79792,0 -6.87475,-3.07684 -6.87475,-6.87509zm23.11451,19.46033l0,-3.47184c0,-3.65316 -2.95941,-6.61493 -6.6146,-6.61493l-19.27084,0c-3.65315,0 -6.61527,2.96177 -6.61527,6.61493l0,3.47184c-0.00614,0.07889 -0.01024,0.15978 -0.01024,0.24172l0,19.99841c0,1.55378 1.25845,2.81261 2.81258,2.81261c1.5514,0 2.81395,-1.25883 2.81395,-2.81261l0,-19.70206l1.88598,0l0,22.51707l0.01366,0l0,31.81584c0,2.06825 1.67976,3.74902 3.75011,3.74902c2.07171,0 3.7501,-1.6787 3.7501,-3.74902l0,-31.81584l2.47392,0l0,31.81584c0,2.06825 1.68113,3.74902 3.7501,3.74902c2.0717,0 3.7501,-1.6787 3.7501,-3.74902l0,-31.81584l0.0116,0l0,-22.51707l1.88598,0l0,19.70106c0,1.55376 1.26254,2.81361 2.81393,2.81361c1.55412,0 2.81328,-1.25985 2.81328,-2.81361l0,-19.99842c-0.00136,-0.08298 -0.00751,-0.16182 -0.01434,-0.24072l0,0z" stroke-linecap="null" stroke-linejoin="null" stroke-dasharray="null" stroke-width="4" stroke="#666666" fill="none"/>
 </g>
</svg>
