<svg width="100" height="100" xmlns="http://www.w3.org/2000/svg" xmlns:svg="http://www.w3.org/2000/svg">
 <!-- Created with SVG-edit - https://github.com/SVG-Edit/svgedit-->

 <g class="layer">
  <title>Layer 1</title>
  <path id="svg_1" d="m64.56277,51.25706l0,-2.66117l-5.31946,0l0,2.66117l5.31946,0zm10.63881,0l0,-2.66117l-5.31941,0l0,2.66117l5.31941,0zm10.63339,0l0,-2.66117l-5.31387,0l0,2.66117l5.31387,0zm8.09911,0l0,-2.66117l-2.77975,0l0,2.66117l2.77975,0zm-40.00171,0l0,-2.66117l-5.31952,0l0,2.66117l5.31952,0zm-42.54705,0l0,-2.66117l-5.31941,0l0,2.66117l5.31941,0zm10.63327,0l0,-2.66117l-5.31383,0l0,2.66117l5.31383,0zm10.63882,0l0,-2.66117l-5.31374,0l0,2.66117l5.31374,0zm10.63885,0l0,-2.66117l-5.3194,0l0,2.66117l5.3194,0zm-31.59173,-8.86189l69.03412,0l0,-37.47335l-69.03412,37.47335zm10.45814,-2.66121l55.91758,-30.33742l0,30.33742l-55.91758,0zm58.57598,17.87085l-69.03412,0l69.03412,37.47337l0,-37.47337z" stroke-linecap="null" stroke-linejoin="null" stroke-dasharray="null" stroke-width="3" stroke="#666666" fill="none"/>
 </g>
</svg>
