<svg width="100" height="100" xmlns="http://www.w3.org/2000/svg" xmlns:svg="http://www.w3.org/2000/svg">
 <!-- Created with SVG-edit - https://github.com/SVG-Edit/svgedit-->

 <g class="layer">
  <title>Layer 1</title>
  <path id="svg_1" d="m48.73864,64.6023l2.6686,0l0,-5.33486l-2.6686,0l0,5.33486zm0,10.6647l2.6686,0l0,-5.33218l-2.6686,0l0,5.33218zm0,10.66441l2.6686,0l0,-5.33189l-2.6686,0l0,5.33189zm0,8.11826l2.6686,0l0,-2.78603l-2.6686,0l0,2.78603zm0,-40.1091l2.6686,0l0,-5.33223l-2.6686,0l0,5.33223zm0,-42.65778l2.6686,0l0,-5.33249l-2.6686,0l0,5.33249zm0,10.66474l2.6686,0l0,-5.33249l-2.6686,0l0,5.33249zm0,10.66429l2.6686,0l0,-5.33249l-2.6686,0l0,5.33249zm0,10.66453l2.6686,0l0,-5.33228l-2.6686,0l0,5.33228zm8.88387,-31.6737l0,69.2181l37.57337,0l-37.57337,-69.2181zm2.66521,10.48583l30.42115,56.06858l-30.42115,0l0,-56.06858zm-17.91307,58.73227l0,-69.2181l-37.57052,69.2181l37.57052,0z" stroke-linecap="null" stroke-linejoin="null" stroke-dasharray="null" stroke-width="3" stroke="#666666" fill="none"/>
 </g>
</svg>
