<svg width="100" height="100" xmlns="http://www.w3.org/2000/svg" xmlns:svg="http://www.w3.org/2000/svg">
 <!-- Created with SVG-edit - https://github.com/SVG-Edit/svgedit-->
 <g class="layer">
  <title>Layer 1</title>
  <path id="svg_1" d="m26.0193,28.12068c-0.9232,5.22658 -3.28082,10.22173 -3.43954,15.61118c0.21111,3.12059 -1.88229,4.79684 -4.74859,4.73795c-3.0823,3.19509 0.38051,8.24465 3.86825,9.53459c3.55959,2.38938 7.97542,-0.28034 11.50135,1.86275c4.68165,3.65977 6.63618,10.14902 5.02127,15.83766c-1.6062,4.69618 6.61475,2.98828 3.52249,-0.76564c-2.38785,-3.6693 4.50224,-2.45641 2.7381,1.02753c-0.33342,2.79637 2.06283,3.70152 0.99665,6.41064c2.77751,1.59277 -0.23293,2.4847 -1.92519,2.78554c-3.96226,1.97485 0.71671,-3.53815 -2.42226,-5.16919c-2.87427,0.6249 -0.92662,5.43842 -1.91325,4.88245c-2.03109,-1.59056 -2.02948,-7.53683 -5.43841,-3.65721c-1.13163,-4.78062 0.93269,-9.75976 -0.65738,-14.5125c0.65121,-3.54966 -4.95318,-4.77415 -4.24417,-0.65705c0.28262,6.28323 -1.6253,12.55418 -0.53041,18.80642c1.50826,3.85643 5.72639,5.59366 8.3739,8.56969c2.17447,2.29462 4.99332,4.74791 8.37742,4.0254c3.83834,-0.16624 7.6836,-0.52092 11.50477,0.08872c4.80629,0.15148 8.47488,-3.64759 12.57678,-5.59903c4.82155,-3.82845 4.06248,-10.66733 3.58179,-16.11454c-0.58931,-3.36308 0.70366,-6.728 0.46268,-10.05962c-3.47617,-4.25299 -6.3279,3.22263 -5.33784,6.43463c-0.00036,4.04064 0.77558,9.24512 -3.07849,11.87729c-3.18063,-0.08028 -6.20791,1.07504 -9.41336,0.47076c-2.60085,1.54453 -6.81363,1.50484 -7.67217,-2.17177c-0.34268,-3.26514 1.13697,-6.68858 -0.87347,-9.73573c1.76643,1.52081 4.84805,-1.31399 3.13053,2.09643c-2.09493,2.77637 1.77365,7.05379 3.22991,2.95658c0.48338,-2.74928 -2.0899,-6.39835 2.13969,-5.80906c0.86275,0.9694 -2.94538,7.7529 2.25971,6.0388c3.71148,-0.81299 -0.66003,-6.63477 4.36576,-6.65487c2.43221,-2.86362 1.77713,-8.23047 5.49775,-10.40312c4.14854,-2.80726 10.62527,-0.78052 13.58597,-5.53482c2.52357,-2.43291 1.33614,-9.17622 -3.01619,-6.9417c-5.43918,0.53044 -1.12236,-7.36706 -1.27426,-10.32578c1.28156,-2.57754 -1.55643,-8.00268 -0.57927,-8.5782c1.84662,2.82502 2.50789,6.12915 2.11095,9.43093c-0.03409,2.79969 -1.22147,10.38782 2.67075,5.70994c1.31789,-3.25971 0.93465,-6.95198 1.87347,-10.34376c1.81044,-7.3222 -1.43178,-14.64836 -5.04594,-20.85046c-3.07816,-3.33895 -6.98616,-6.00022 -10.65587,-8.62099c-6.17312,-2.32129 -12.98869,-2.73739 -19.50824,-2.1557c-5.76653,0.99966 -11.86505,2.05365 -16.4587,5.98531c-4.47742,2.63834 -8.76513,6.14214 -10.53499,11.21077c-1.54268,4.08388 -4.24374,8.24235 -3.01616,12.77869c1.17401,3.78131 0.55143,7.70843 0.74149,11.57359c2.00159,4.41739 3.89118,-2.26048 3.7038,-4.46942c0.11087,-4.18828 2.32054,-7.89579 3.94893,-11.61411l0,0zm36.7604,8.98573c4.11605,0.29531 9.32731,2.58709 9.43936,7.36506c0.62607,4.79527 -3.24866,9.44326 -8.21407,8.97322c-4.50991,-0.37057 -7.39454,-4.26634 -7.09507,-8.64621c-1.50981,-3.1404 0.83979,-6.50419 3.9936,-7.22584c0.61152,-0.20576 1.24022,-0.35985 1.87617,-0.46623l0,0zm-27.77426,0.40843c4.77456,-0.84899 10.20693,2.11293 10.2226,7.39796c0.44858,5.10918 -4.97572,6.11037 -8.67608,7.39039c-2.56072,1.6532 -5.22046,0.11396 -7.34789,-1.55188c-2.76031,-2.8892 -1.9492,-8.71163 0.96563,-11.34874c1.41343,-1.04639 3.16306,-1.45746 4.83574,-1.88773zm16.33791,13.47895c2.31137,3.17682 5.08624,8.02127 2.09723,11.62721c-2.65365,2.12815 -2.98828,-3.02734 -5.77349,-0.5993c-2.61269,-2.28799 -0.20307,-6.94482 1.63029,-9.26953c0.60425,-0.66924 1.296,-1.25853 2.04597,-1.75837z" stroke-linecap="null" stroke-linejoin="null" stroke-dasharray="null" stroke-width="4" stroke="#666666" fill="none"/>
 </g>
</svg>
