<svg width="100" height="100" xmlns="http://www.w3.org/2000/svg" xmlns:svg="http://www.w3.org/2000/svg">
 <!-- Created with SVG-edit - https://github.com/SVG-Edit/svgedit-->

 <g class="layer">
  <title>Layer 1</title>
  <path id="svg_1" d="m7.13692,9.36717c-1.89743,0 -3.42496,1.52752 -3.42496,3.42497l0,45.77033c0,1.89746 1.52753,3.42499 3.42496,3.42499l15.30542,0c-0.6325,0.72395 -0.98275,1.50981 -0.98275,2.33517c0,3.52658 6.34002,6.38294 14.16711,6.38294c7.82701,0 14.16698,-2.85636 14.16698,-6.38294c0,-0.82536 -0.35026,-1.61123 -0.98275,-2.33517l44.2622,0c1.89741,0 3.42495,-1.52753 3.42495,-3.42499l0,-45.77033c0,-1.89745 -1.52754,-3.42497 -3.42495,-3.42497l-85.93622,0zm16.81365,61.96107c-4.30058,0 -7.7841,1.67225 -7.7841,3.73655c0,2.0643 3.48351,3.73632 7.7841,3.73632c4.3006,0 7.78402,-1.67202 7.78402,-3.73632c0,-2.0643 -3.48342,-3.73655 -7.78402,-3.73655zm-7.7841,9.34103c-2.40829,0 -4.35905,1.254 -4.35905,2.8022c0,1.54824 1.95075,2.80226 4.35905,2.80226c2.40828,0 4.35904,-1.25402 4.35904,-2.80226c0,-1.5482 -1.95075,-2.8022 -4.35904,-2.8022zm-7.47274,6.84995c-1.54823,0 -2.80225,0.69671 -2.80225,1.55679c0,0.86003 1.25402,1.55682 2.80225,1.55682c1.54822,0 2.80234,-0.69678 2.80234,-1.55682c0,-0.86008 -1.25411,-1.55679 -2.80234,-1.55679z" stroke-linecap="null" stroke-linejoin="null" stroke-dasharray="null" stroke-width="3" stroke="#666666" fill="none"/>
 </g>
</svg>
