<svg width="100" height="100" xmlns="http://www.w3.org/2000/svg" xmlns:svg="http://www.w3.org/2000/svg">
 <!-- Created with SVG-edit - https://github.com/SVG-Edit/svgedit-->
 <g class="layer">
  <title>Layer 1</title>
  <path id="svg_1" d="m49.94103,19.74691c3.99486,0 7.23717,-3.24011 7.23717,-7.23719c0,-3.99934 -3.24231,-7.24165 -7.23717,-7.24165c-3.99815,0 -7.24152,3.24232 -7.24152,7.24165c0,3.99708 3.24227,7.23719 7.24152,7.23719zm20.29722,31.21196l-6.49465,-24.08805c-0.06052,-0.21868 -0.14577,-0.42728 -0.24892,-0.6202c-0.73795,-2.2565 -2.85653,-3.89054 -5.35868,-3.89054l-16.43816,0c-2.60859,0 -4.79888,1.77423 -5.44371,4.18212c-0.04385,0.10545 -0.07981,0.21644 -0.11217,0.33088l-6.37927,24.08691c-0.42517,1.57911 0.5125,3.20198 2.09374,3.62703c1.57907,0.42278 3.20202,-0.51478 3.62699,-2.09387l5.00999,-18.92121l2.08711,0l-9.09231,34.23442l8.5675,0l0,23.63499c0,1.81802 1.47145,3.29058 3.29162,3.29058c1.81566,0 3.29063,-1.47144 3.29063,-3.29058l0,-23.63499l2.61752,0l0,23.63499c0,1.81802 1.4736,3.29058 3.29397,3.29058c1.81577,0 3.29059,-1.47144 3.29059,-3.29058l0,-23.63499l8.56268,0l-9.12572,-34.23442l2.14212,0l5.10181,18.92121c0.42496,1.57909 2.04773,2.51665 3.627,2.09387c1.57565,-0.42505 2.51314,-2.04903 2.09032,-3.62815l0,0z" stroke-linecap="null" stroke-linejoin="null" stroke-dasharray="null" stroke-width="4" stroke="#666666" fill="none"/>
 </g>
</svg>
