<svg width="200" height="200" xmlns="http://www.w3.org/2000/svg" xmlns:svg="http://www.w3.org/2000/svg">
 <!-- Created with SVG-edit - https://github.com/SVG-Edit/svgedit-->

 <g class="layer">
  <title>Layer 1</title>
  <path fill="#666666" stroke="#000000" stroke-width="5" d="m14.48001,66.08164l0,119.00149l143.86426,0l0,-119.00149l-143.86426,0zm121.21875,108.78785l-98.57326,0l0,-98.57364l98.57326,0l0,98.57364zm-74.59588,-59.94392c7.59779,0 13.76318,-6.16481 13.76318,-13.76254c0,-7.60395 -6.16541,-13.76262 -13.76318,-13.76262c-7.60335,0 -13.76314,6.1648 -13.76314,13.76262c0,7.59774 6.15979,13.76254 13.76314,13.76254zm69.273,11.98918l-26.19907,-26.19887l-36.85571,36.85571l-10.21484,-10.21469l-14.663,14.66301l0,27.52115l87.93262,0l0,-42.62631l0,0z" id="svg_1"/>
  <path fill="#666666" stroke="#000000" stroke-width="5" stroke-dasharray="null" stroke-linejoin="null" stroke-linecap="null" d="m188.36339,19.5693l-17.01346,-10.69439c-4.2941,-2.69326 -9.94992,-1.39609 -12.6543,2.89575l-6.70631,10.67469l32.54791,20.44483l6.71062,-10.67103c2.69452,-4.29986 1.40768,-9.95761 -2.88446,-12.64982l0,-0.00003zm-94.2916,95.09103l32.54783,20.44441l53.04987,-84.45515l-32.56302,-20.44395l-53.03468,84.45471l0,-0.00002zm-4.97321,25.97588l-0.71896,19.19766l16.98845,-8.98332l15.78592,-8.33527l-31.40124,-19.73473l-0.65417,17.85566z" id="svg_2"/>
 </g>
</svg>
