<svg width="200" height="200" xmlns="http://www.w3.org/2000/svg" xmlns:svg="http://www.w3.org/2000/svg">
  <!-- Created with SVG-edit - https://github.com/SVG-Edit/svgedit-->
<g class="layer">
 <title>Layer 1</title>
 <path id="svg_1" d="m139.0643,69.54967c-0.80045,-2.98557 -1.88141,-2.97044 1.59369,-11.09608l11.96841,-25.37229c0.15118,-0.36734 1.44131,-2.97042 1.38486,-6.81972c0.10719,-3.81469 -2.25665,-9.29358 -8.06836,-11.839c-8.4505,-4.00195 -8.43542,-4.01565 -16.90106,-7.98174c-5.65209,-2.85492 -11.39901,-1.23215 -14.26759,1.29126c-3.02828,2.39978 -4.21083,5.047 -4.39108,5.40732l-11.99026,25.35026c-4.06649,7.81541 -4.7224,6.99277 -7.55672,8.26927c-3.38156,0.93078 -8.96898,4.02378 -12.86913,13.08613c-7.98843,16.91473 -7.98843,16.91473 -7.98843,16.91473l-1.9898,4.22494l8.43533,3.98664l-25.94844,54.96227c-2.7408,5.97116 -1.19791,10.35254 -1.19791,14.65131c0.07282,4.51884 -0.55424,10.88062 -6.31485,23.14441l-1.98989,4.22459l25.35714,11.97549l1.9899,-4.21915c5.82526,-12.24765 10.31675,-16.76935 13.85783,-19.58835c3.31562,-2.74753 7.686,-4.32657 10.56291,-10.23694l25.94846,-54.92665l8.44933,3.9949l2.01183,-4.24802c0,0 0,0 7.96646,-16.90652c4.52158,-8.78191 3.37473,-15.01871 1.94736,-18.24905zm-54.78091,86.35299c-1.1249,2.54674 -2.97869,3.16537 -7.86606,6.88664c-4.16004,3.22888 -9.11343,8.44902 -14.48489,18.74681l-8.58811,-4.05417c4.52847,-10.6689 5.40858,-17.83597 5.26421,-23.09233c-0.22422,-6.13589 -0.92268,-7.95958 0.32462,-10.44589l25.94846,-54.94859l25.35716,11.98343l-25.95539,54.9241z" stroke-linecap="null" stroke-linejoin="null" stroke-dasharray="null" stroke-width="5" stroke="#000000" fill="#666666"/>
</g>
</svg>
