<svg width="200" height="200" xmlns="http://www.w3.org/2000/svg" xmlns:svg="http://www.w3.org/2000/svg">
 <!-- Created with SVG-edit - https://github.com/SVG-Edit/svgedit-->

 <g class="layer">
  <title>Layer 1</title>
  <path id="svg_1" d="m100.5134,32.62968c-50.07481,0 -90.66843,30.44444 -90.66843,67.9948c0,12.83614 4.80252,24.82246 13.05869,35.06978l-13.05869,28.61694l36.35431,-9.31834c15.14339,8.51813 33.91357,13.63683 54.31412,13.63683c50.06969,0 90.66355,-30.44519 90.66355,-68.0052s-40.59386,-67.9948 -90.66355,-67.9948zm6.35891,106.44397l-12.75229,0l0,-12.23328l12.75229,0l0,12.23328zm0,-25.29663l0,4.05127l-12.75229,0l0,-4.98048c0,-15.02933 17.10004,-17.41135 17.10004,-28.08299c0,-4.87177 -4.34775,-8.60687 -10.05454,-8.60687c-5.90414,0 -11.09194,4.34753 -11.09194,4.34753l-7.25296,-9.02191c0,0 7.1492,-7.46033 19.48626,-7.46033c11.71963,0 22.59914,7.25281 22.59914,19.48685c0.00487,17.1144 -18.03371,19.08066 -18.03371,30.26694z" stroke-width="5" stroke="#000000" fill="#666666"/>
 </g>
</svg>
