<svg width="500" height="200" xmlns="http://www.w3.org/2000/svg" xmlns:svg="http://www.w3.org/2000/svg">
 <!-- Created with SVG-edit - https://github.com/SVG-Edit/svgedit-->

 <g class="layer">
  <title>Layer 1</title>
  <path fill="#000000" stroke="#666666" stroke-width="15" stroke-dasharray="null" stroke-linejoin="null" stroke-linecap="null" fill-opacity="0" d="m223.84622,36.89372l-2.41153,-13.77714l-9.48149,10.30144l-13.84966,-1.96626l6.86087,12.19396l-6.151,12.55769l13.72665,-2.74854l10.05495,9.73619l1.61502,-13.90398l12.36603,-6.55139l-12.72986,-5.84196l0.00002,-0.00001zm18.92719,80.8038l-1.08308,-7.44324l-5.25945,5.38641l-7.42555,-1.27377l3.50351,6.66134l-3.50351,6.67824l7.42555,-1.27377l5.25945,5.38725l1.08308,-7.46136l6.75627,-3.33035l-6.75627,-3.33075l0,0.00001zm-127.00248,-62.76911l5.65097,-2.22005l5.03668,3.40321l-0.37325,-6.05951l4.7818,-3.75005l-5.8737,-1.5279l-2.07915,-5.69658l-3.26242,5.11407l-6.06931,0.2179l3.85825,4.67781l-1.66988,5.84111l0,-0.00001zm32.91331,16.88904l6.08734,-6.53323l8.83112,1.31002l-4.336,-7.80701l3.97662,-8.00765l-8.76295,1.71127l-6.37856,-6.24322l-1.08296,8.86327l-7.92131,4.1307l8.09875,3.76818l1.48793,8.80766l0.00002,0.00002zm40.51996,13.21271c-3.50768,-2.18375 -6.98839,-3.67631 -10.0914,-4.33133c-2.93454,-0.54621 -6.19659,-0.89185 -8.49878,2.22006l-68.90631,109.86752l39.83769,0l57.65915,-91.94157c1.80638,-3.43941 0.07262,-6.20574 -1.688,-8.6264c-1.93799,-2.49316 -4.80444,-4.98633 -8.31235,-7.18828zm-21.59319,54.96104c-1.51482,-2.36633 -4.41302,-5.11366 -8.18964,-7.47966c-3.76704,-2.36624 -7.50224,-3.78534 -10.29128,-4.1125l26.36554,-42.05882c0.37784,-0.07255 1.5609,-0.12691 3.23485,0.40086c2.06584,0.54627 4.68205,1.6923 7.30725,3.34794c3.00705,1.87441 5.41402,4.04098 6.75636,5.78759c0.67331,0.85561 1.0598,1.61943 1.16451,2.00218c0.00912,0.03657 0.02275,0.0547 0.02275,0.07281l-26.37036,42.03958l0.00002,0.00002z" id="svg_2"/>
  <text font-style="italic" transform="matrix(11.2412, 0, 0, 9.84674, -3795.52, -1232.23)" font-weight="bold" xml:space="preserve" text-anchor="middle" font-family="Cursive" font-size="26" id="svg_1" y="145.00367" x="366.76192" stroke-linecap="null" stroke-linejoin="null" stroke-dasharray="null" stroke-width="0" stroke="#666666" fill="#666666">?</text>
 </g>
</svg>
