<svg width="500" height="200" xmlns="http://www.w3.org/2000/svg" xmlns:svg="http://www.w3.org/2000/svg">
 <!-- Created with SVG-edit - https://github.com/SVG-Edit/svgedit-->

 <g class="layer">
  <title>Layer 1</title>
  <text fill="#666666" stroke="#666666" stroke-width="0" stroke-dasharray="null" stroke-linejoin="null" stroke-linecap="null" x="373.52276" y="144.699" id="svg_1" font-size="26" font-family="Cursive" text-anchor="middle" xml:space="preserve" font-weight="bold" transform="matrix(11.2412, 0, 0, 9.84674, -3795.52, -1232.23)" font-style="italic">?</text>
  <path id="svg_2" d="m127.20584,30.94207c-11.7645,-11.4269 -24.45308,-20.58049 -34.86165,-21.82853c-0.56616,-0.08106 -1.15284,-0.12801 -1.77318,-0.14146l-68.50098,0c-1.09105,0 -2.17169,0.42455 -2.9413,1.21384c-0.76162,0.76876 -1.21463,1.84826 -1.21463,2.94765l0,173.69699c0,1.09229 0.42733,2.13817 1.21463,2.93333c0.79008,0.78362 1.82976,1.20819 2.9413,1.20819l123.87395,0c1.09348,0 2.13837,-0.41812 2.92807,-1.20819c0.79013,-0.7887 1.22748,-1.83463 1.22748,-2.93333l0,-115.58446c-0.24197,-13.41666 -10.75085,-28.04782 -22.89369,-40.30403zm-5.84894,5.88171c5.43204,5.30202 10.31342,11.30592 13.957,17.09306c-3.15724,-1.24796 -6.46889,-2.1717 -9.57748,-2.90763c-6.84732,-1.53747 -13.54533,-2.15762 -17.70856,-2.40721c0.02045,-0.89805 0.02814,-1.90944 0.02814,-3.00882c0,-5.86177 -0.37041,-14.21946 -2.4008,-21.58587c-0.0205,-0.06753 -0.03577,-0.13452 -0.06184,-0.20203c5.15431,3.39986 10.76651,7.91265 15.76355,13.01851zm20.41829,145.83041l-115.56242,0l0,-165.38552l64.36623,0l0,0.01354c2.80452,-0.16854 5.22614,2.60405 7.08125,8.94451c1.6857,6.03725 2.11267,13.90945 2.10504,19.36646c0.01285,3.99936 -0.18294,6.68464 -0.18294,6.68464l-0.32909,4.39753l4.42326,0.04757c0.02045,0 10.22839,0.12219 20.23812,2.39439c9.61879,2.07796 17.14023,6.21949 17.84006,10.90775c0.02849,0.4183 0.0361,0.8364 0.02849,1.22748l0,111.40165l-0.008,0z" stroke-linecap="null" stroke-linejoin="null" stroke-dasharray="null" stroke-width="15" stroke="#666666" fill="#666666"/>
  <path id="svg_3" d="m321.35092,101.02338l-20.14658,-11.63931l0,12.94695l-36.16486,0c-6.33139,0.48139 -17.25671,-6.70167 -29.42116,-16.24159c-12.23199,-9.04127 -26.21968,-20.12991 -44.93924,-20.4311l-12.61168,0l0,20.64587l12.61168,0c9.17003,-0.26633 20.47392,6.95113 32.51778,16.25874c4.48978,3.2522 9.01488,6.83932 13.81548,10.07388c-4.8006,3.24301 -9.3257,6.83904 -13.81548,10.09046c-12.04385,9.28239 -23.34775,16.50838 -32.51778,16.25021l-12.61168,0l0,20.68083l12.61168,0c18.68513,-0.2668 32.67252,-11.38997 44.95656,-20.42267c12.1644,-9.53159 23.08957,-16.71432 29.42075,-16.25023l36.14795,0l0,12.94691l20.14658,-11.62227l20.16391,-11.63889l-20.16391,-11.6478z" stroke-linecap="null" stroke-linejoin="null" stroke-dasharray="null" stroke-width="15" stroke="#666666" fill="#666666"/>
 </g>
</svg>
