<svg width="200" height="200" xmlns="http://www.w3.org/2000/svg" xmlns:svg="http://www.w3.org/2000/svg">
  <!-- Created with SVG-edit - https://github.com/SVG-Edit/svgedit-->
  <g class="layer">
   <title>Layer 1</title>
   <path id="svg_1" d="m100.49741,5.49983c-52.19146,0 -94.50008,42.5324 -94.50008,95.00005c0,52.46747 42.30861,94.99995 94.50008,94.99995c52.19176,0 94.49992,-42.53249 94.49992,-94.99995c0,-52.46764 -42.30817,-95.00005 -94.49992,-95.00005zm0,178.61351c-10.07169,0 -18.24463,-8.2099 -18.24463,-18.34109s8.1664,-18.34109 18.24463,-18.34109c10.07816,0 18.24452,8.20964 18.24452,18.34109s-8.16637,18.34109 -18.24452,18.34109zm0,-50.36287l-51.0927,-42.8918l22.5554,0l0,-57.37642l57.08107,0l0,57.37642l22.54919,0l-51.09297,42.8918z" stroke-linecap="null" stroke-linejoin="null" stroke-dasharray="null" stroke-width="5" stroke="#000000" fill="#666666"/>
  </g>
 </svg>
