<svg width="200" height="200" xmlns="http://www.w3.org/2000/svg" xmlns:svg="http://www.w3.org/2000/svg">
 <!-- Created with SVG-edit - https://github.com/SVG-Edit/svgedit-->

 <g class="layer">
  <title>Layer 1</title>
  <path id="svg_1" d="m196.93602,172.55367l-51.23077,-51.22942c6.90269,-11.37952 10.95038,-24.69395 10.95587,-38.97089c-0.00549,-41.64614 -33.73152,-75.3777 -75.35436,-75.39136c-41.63233,0.01366 -75.37073,33.74521 -75.37073,75.38312c0,41.61732 33.7384,75.34882 75.37073,75.34882c14.28382,0 27.59819,-4.04771 38.97924,-10.9491l51.24182,51.2363l25.4082,-25.42747zm-162.25147,-90.20855c0.04399,-25.75114 20.87108,-46.57013 46.61398,-46.6277c25.73064,0.05758 46.57008,20.87657 46.61407,46.6277c-0.0495,25.73739 -20.88343,46.55639 -46.61407,46.61399c-25.7429,-0.0576 -46.56999,-20.8766 -46.61398,-46.61399z" stroke-linecap="null" stroke-linejoin="null" stroke-dasharray="null" stroke-width="0" stroke="#000000" fill="#666666"/>
 </g>
</svg>
