<svg width="500" height="200" xmlns="http://www.w3.org/2000/svg" xmlns:svg="http://www.w3.org/2000/svg">
 <!-- Created with SVG-edit - https://github.com/SVG-Edit/svgedit-->
 <g class="layer">
  <title>Layer 1</title>
  <path id="svg_1" d="m129.58113,113.24619l100.34694,-23.37785l0,-13.80136l-11.31293,0c-5.62114,0 -10.96259,-0.53503 -15.83887,-1.51329l0,7.39207l-100.34692,23.3928l0,18.57499l27.13098,0l0,-10.66737l0.0208,0zm267.94789,10.67258l0,-18.5802l-100.34665,-23.38302l0,-7.38754c-4.85553,0.96852 -10.21771,1.50418 -15.81671,1.50418l-11.29361,0l-0.01108,13.80593l100.34711,23.38303l0,10.66213l27.12094,0l0,-0.00452zm-133.95862,0l0,-47.84657l-27.13101,0l0,47.84657l27.13101,0zm151.78461,6.37933l-62.7518,0c-14.97791,0 -27.13113,5.71341 -27.13113,12.75475l0,29.49997c0,7.04198 12.15323,12.75995 27.13113,12.75995l62.7518,0c14.97751,0 27.14041,-5.71797 27.14041,-12.75995l0,-29.49997c0,-7.04134 -12.1629,-12.75475 -27.14041,-12.75475zm-267.95793,0l-62.75043,0c-14.99017,0 -27.14207,5.71341 -27.14207,12.75475l0,29.49997c0,7.04198 12.1519,12.75995 27.14207,12.75995l62.75043,0c14.97765,0 27.13106,-5.71797 27.13106,-12.75995l0,-29.49997c0,-7.04134 -12.15341,-12.75475 -27.13106,-12.75475zm71.22777,-60.59609l62.7504,0c14.97903,0 27.13095,-5.71805 27.13095,-12.75995l0,-29.50008c0,-7.04127 -12.15192,-12.75474 -27.13095,-12.75474l-62.7504,0c-14.97908,0 -27.14201,5.71347 -27.14201,12.75474l0,29.50008c0,7.0419 12.16293,12.75995 27.14201,12.75995zm62.7504,60.59609l-62.7504,0c-14.97908,0 -27.14201,5.71341 -27.14201,12.75475l0,29.49997c0,7.04198 12.16293,12.75995 27.14201,12.75995l62.7504,0c14.97903,0 27.13095,-5.71797 27.13095,-12.75995l0,-29.49997c0,-7.04134 -12.15192,-12.75475 -27.13095,-12.75475z" stroke-linecap="null" stroke-linejoin="null" stroke-dasharray="null" stroke-width="7" stroke="#666666" fill="#b2b2b2"/>
 </g>
</svg>
