<svg width="200" height="200" xmlns="http://www.w3.org/2000/svg" xmlns:svg="http://www.w3.org/2000/svg">
 <!-- Created with SVG-edit - https://github.com/SVG-Edit/svgedit-->
 <g class="layer">
  <title>Layer 1</title>
  <path id="svg_1" d="m121.60719,67.87882l-20.85724,-3.69385l7.68405,-4.0125c4.22679,-2.20712 8.05852,-4.34356 8.51617,-4.74769c1.1357,-1.00439 -13.00873,-22.86101 -14.78253,-22.84286c-0.77962,0.00892 -6.2131,8.47208 -12.07472,18.8096c-5.90372,10.41173 -11.77924,18.34083 -13.17307,17.77769c-16.4988,-6.66656 -29.96038,-13.41208 -29.96038,-15.01237c0,-1.09315 5.17641,-10.84388 11.50363,-21.6683l11.50367,-19.68095l31.3649,0l31.36478,0l8.18727,12.94872l8.18733,12.94839l8.54106,-4.38174c5.92078,-3.03745 8.1754,-3.47374 7.34885,-1.42181c-7.27739,18.06665 -18.13605,39.13335 -20.06602,38.92851c-1.33652,-0.14123 -11.8161,-1.91926 -23.28775,-3.95082l0,0zm-97.27645,80.60401c-7.93743,-13.66884 -15.05145,-26.46694 -15.80854,-28.44048c-0.77683,-2.02472 1.48691,-9.25994 5.19743,-16.61028l6.57395,-13.02275l-6.7202,-3.96987c-8.9432,-5.28278 -5.61901,-6.90981 18.10487,-8.86166l18.74954,-1.54224l7.35435,19.43239c4.045,10.68745 7.87221,20.81229 8.50457,22.49928c0.65993,1.75952 -2.49755,0.58844 -7.40425,-2.74557l-8.55438,-5.81326l-5.9719,11.52798c-3.2846,6.34007 -6.0184,12.23418 -6.07519,13.09766c-0.05711,0.86362 10.0232,1.85158 22.40015,2.19514l22.50447,0.62589l1.46886,16.4614c0.8073,9.05396 1.30147,16.58253 1.09737,16.73074c-0.20361,0.14748 -10.85966,0.94806 -23.67989,1.77867l-23.30915,1.50974l-14.43204,-24.85277l0,0zm88.83255,24.15207c-13.62628,-20.56712 -13.86317,-19.03761 6.38986,-41.26828l13.00148,-14.27143l-1.38116,10.42896l-1.38092,10.42873l14.56941,0c8.01329,0 14.56932,-0.64069 14.56932,-1.42395c0,-0.78313 -4.44595,-9.58022 -9.87981,-19.54887c-5.43391,-9.96867 -9.8591,-18.96095 -9.83417,-19.9824c0.05629,-2.29082 28.54062,-21.20705 29.89465,-19.85319c0.53638,0.53648 5.82286,10.0927 11.74716,21.23639l10.77104,20.26077l-14.493,23.37748c-7.97171,12.85806 -15.63077,24.63206 -17.01955,26.16492c-1.38951,1.53275 -9.15828,3.40633 -17.26331,4.16324c-15.47192,1.44495 -15.05092,1.09682 -17.31937,14.30827c-0.39713,2.31241 -5.02586,-2.93391 -12.37166,-14.02106l0,0.00041z" stroke-linecap="null" stroke-linejoin="null" stroke-dasharray="null" stroke-width="7" stroke="#666666" fill="#b2b2b2"/>
 </g>
</svg>
