<svg width="200" height="200" xmlns="http://www.w3.org/2000/svg" xmlns:svg="http://www.w3.org/2000/svg">
 <!-- Created with SVG-edit - https://github.com/SVG-Edit/svgedit-->

 <g class="layer">
  <title>Layer 1</title>
  <path id="svg_1" d="m137.11684,29.29614c-6.33646,-3.06972 -13.96864,-0.43397 -17.05713,5.91529c-3.07573,6.34922 -0.42114,13.98138 5.91538,17.05713c19.87794,9.67444 33.59821,30.02457 33.58537,53.60989c-0.0639,32.88982 -26.67439,59.49963 -59.5575,59.55743c-32.88905,-0.06393 -59.49955,-26.6745 -59.5635,-59.55743c-0.01271,-23.59798 13.7136,-43.96766 33.61095,-53.62268c6.34922,-3.07573 8.98495,-10.7079 5.91526,-17.05716c-3.07568,-6.33643 -10.695,-8.99167 -17.04486,-5.91529c-28.40948,13.75133 -48.00003,42.90136 -48.01284,76.59514c0.01281,46.99211 38.09004,85.0761 85.09499,85.08905c46.99901,-0.01295 85.08298,-38.09694 85.08907,-85.08905c-0.01288,-33.68088 -19.5778,-62.8116 -47.97519,-76.58231zm-37.11388,62.75414c7.04485,0 12.75632,-5.70526 12.75632,-12.76291l0,-59.56355c0,-7.05151 -5.71148,-12.75631 -12.75632,-12.75631c-7.05767,0 -12.76232,5.71147 -12.76232,12.75631l0,59.55746c0,7.05766 5.70465,12.769 12.76232,12.769z" stroke-linecap="null" stroke-linejoin="null" stroke-dasharray="null" stroke-width="7" stroke="#666666" fill="#b2b2b2"/>
 </g>
</svg>
