<svg width="200" height="200" xmlns="http://www.w3.org/2000/svg" xmlns:svg="http://www.w3.org/2000/svg">
 <!-- Created with SVG-edit - https://github.com/SVG-Edit/svgedit-->
 <g class="layer">
  <title>Layer 1</title>
  <path id="svg_1" d="m71.23766,110.28548c-1.128,-3.24145 -1.86839,-6.6678 -1.86839,-10.27927c0,-17.37762 14.14857,-31.51863 31.51609,-31.51863c3.61924,0 7.04047,0.74065 10.27953,1.86582l14.96885,-14.96626c-8.58881,-3.59177 -17.20247,-5.95794 -25.24838,-5.95794c-49.47366,0 -88.51035,50.577 -88.51035,50.577s14.20587,18.29763 36.2554,32.8888l22.60725,-22.60954zm78.93874,-41.85273l-20.03615,20.0384c1.42317,3.5817 2.26106,7.46321 2.26106,11.54039c0,17.36173 -14.14851,31.51301 -31.51596,31.51301c-4.0766,0 -7.95338,-0.8351 -11.53992,-2.26093l-16.18707,16.19701c8.70149,3.14119 17.99792,5.13219 27.72699,5.13219c37.83621,0 88.50999,-50.58128 88.50999,-50.58128s-17.31459,-17.22298 -39.21895,-31.57879zm13.27054,-41.09263l-135.63302,135.63306l9.27666,9.28392l135.6279,-135.64329l-9.27153,-9.27369z" stroke-width="5" stroke="#000000" fill="#666666"/>
 </g>
</svg>
