<svg width="200" height="200" xmlns="http://www.w3.org/2000/svg" xmlns:svg="http://www.w3.org/2000/svg">
  <!-- Created with SVG-edit - https://github.com/SVG-Edit/svgedit-->
  <g class="layer">
   <title>Layer 1</title>
   <path id="svg_1" d="m148.03139,34.59421c-11.85463,-10.73691 -24.64003,-19.33662 -35.12839,-20.50915c-0.57033,-0.07613 -1.16145,-0.12091 -1.78635,-0.13298l-69.02497,0c-1.09945,0 -2.1885,0.39898 -2.96384,1.14113c-0.76744,0.72172 -1.22372,1.7359 -1.22372,2.76949l0,163.1982c0,1.02623 0.43039,2.00903 1.22372,2.7561c0.79613,0.73621 1.84361,1.13509 2.96384,1.13509l124.82113,0c1.1019,0 2.1546,-0.39287 2.95071,-1.13509c0.79591,-0.74103 1.23663,-1.72379 1.23663,-2.7561l0,-108.5985c-0.24356,-12.6058 -10.83282,-26.35275 -23.06876,-37.86819zm-5.89362,5.52682c5.47351,4.98162 10.39229,10.62209 14.06395,16.05944c-3.18159,-1.17253 -6.5186,-2.0405 -9.65085,-2.73196c-6.89963,-1.44455 -13.64883,-2.02723 -17.84425,-2.26173c0.02083,-0.84377 0.02867,-1.79395 0.02867,-2.82746c0,-5.50748 -0.37341,-13.36011 -2.41914,-20.28074c-0.02084,-0.06285 -0.03638,-0.12687 -0.06228,-0.18973c5.19355,3.19373 10.84863,7.43431 15.8839,12.23218zm20.57458,137.01595l-116.44628,0l0,-155.3891l64.85825,0l0,0.01216c2.82632,-0.15844 5.26611,2.44665 7.13556,8.40383c1.69843,5.67185 2.12886,13.06875 2.12114,18.19546c0.01298,3.75822 -0.18416,6.28113 -0.18416,6.28113l-0.33193,4.13175l4.45722,0.04478c0.02082,0 10.30659,0.11481 20.39302,2.24965c9.69203,1.95229 17.27115,5.8435 17.97633,10.24848c0.02853,0.39295 0.03638,0.7858 0.02853,1.15329l0,104.66857l-0.00769,0z" stroke-linecap="null" stroke-linejoin="null" stroke-dasharray="null" stroke-width="5" stroke="#000000" fill="#666666"/>
   <path id="svg_2" d="m180.93948,157.40408l-53.49056,-53.49435l53.47945,-53.49077l-27.49271,-27.51105l-53.49066,53.49057l-53.49057,-53.49057l-27.49644,27.51105l53.48326,53.49077l-53.49068,53.49435l27.51127,27.50381l53.48316,-53.49071l53.47958,53.49071" stroke-linecap="null" stroke-linejoin="null" stroke-dasharray="null" stroke-width="5" stroke="#000000" fill="#666666"/>
  </g>
 </svg>
