<svg width="200" height="200" xmlns="http://www.w3.org/2000/svg" xmlns:svg="http://www.w3.org/2000/svg">
  <!-- Created with SVG-edit - https://github.com/SVG-Edit/svgedit-->
  <g class="layer">
   <title>Layer 1</title>
   <path id="svg_1" d="m163.0529,76.41551c0.13593,-1.39955 0.21448,-2.80985 0.21448,-4.23664c0,-24.73298 -20.04749,-44.78105 -44.78117,-44.78105c-19.19486,0 -35.52381,12.10276 -41.89362,29.08423c-4.22011,-4.63013 -10.23876,-7.58741 -16.99528,-7.58741c-12.73962,0 -23.06437,10.32333 -23.06437,23.06293c0,1.50317 0.16473,2.97384 0.44418,4.39219c-16.99522,2.80166 -29.99929,17.45463 -29.99929,35.2371c0,19.79128 16.04205,35.82441 35.82451,35.82441l24.38993,0l-5.06602,-5.06494c-2.70107,-2.70041 -4.19134,-6.29735 -4.19134,-10.12375c0,-3.8183 1.49028,-7.41525 4.19134,-10.11828l3.98369,-3.99052c2.86647,-2.85893 6.71419,-4.49903 10.5401,-4.49903c0.19322,0 0.3867,0 0.5733,0.0139l0,-3.38131c0,-7.90997 6.43398,-14.34392 14.32956,-14.34392l23.40123,0c7.90315,0 14.32968,6.43395 14.32968,14.34392l0,3.38131c0.19411,-0.0139 0.38739,-0.0139 0.58084,-0.0139c3.81909,0 7.66669,1.6401 10.53249,4.51539l3.99054,3.95506c5.58881,5.59478 5.58881,14.68824 0,20.26113l-5.05855,5.06494l17.21802,0c19.78926,0 35.82515,-16.03313 35.82515,-35.82441c0.00671,-17.56107 -12.64676,-32.10727 -29.31938,-35.17135zm-23.73067,50.74231l-3.98372,-3.97671c-2.79472,-2.78799 -6.90686,-3.22543 -9.14265,-0.98136c-2.23502,2.23312 -4.06976,0.84485 -4.06976,-3.09644l0,-8.8693c0,-3.94146 -3.23135,-7.16676 -7.16514,-7.16676l-23.3937,0c-3.94066,0 -7.16451,3.2253 -7.16451,7.16676l0,8.8693c0,3.94128 -1.83463,5.32956 -4.07719,3.09644c-2.2352,-2.24406 -6.35551,-1.80663 -9.14268,0.98136l-3.98374,3.97671c-2.79408,2.78534 -2.79408,7.33604 -0.0069,10.12379l31.0099,31.03058c1.38995,1.39113 3.23141,2.08562 5.06615,2.08562s3.66798,-0.69449 5.06525,-2.08562l31.00312,-31.03058c2.7872,-2.77933 2.77968,-7.33846 -0.01443,-10.12379z" stroke-linecap="null" stroke-linejoin="null" stroke-dasharray="null" stroke-width="5" stroke="#000000" fill="#666666"/>
  </g>
 </svg>
