<svg width="500" height="200" xmlns="http://www.w3.org/2000/svg" xmlns:svg="http://www.w3.org/2000/svg">
 <!-- Created with SVG-edit - https://github.com/SVG-Edit/svgedit-->
 <g class="layer">
  <title>Layer 1</title>
  <rect fill-opacity="0" id="svg_1" height="149" width="117" y="26.5" x="331" stroke-linecap="null" stroke-linejoin="null" stroke-dasharray="null" stroke-width="15" stroke="#666666" fill="#000000"/>
  <rect id="svg_2" fill-opacity="0" height="149" width="117" y="24.5" x="54" opacity="0.5" stroke-linecap="null" stroke-linejoin="null" stroke-dasharray="null" stroke-width="15" stroke="#666666" fill="#000000"/>
  <path transform="rotate(-52.3367, 280.109, 100.55)" id="svg_3" d="m289.11035,150.57306c4.47141,-1.64296 8.13956,-3.17093 1.1915,-3.21684c-6.13165,0.82529 -22.00925,-5.23552 -9.28522,-8.21516c7.95792,-3.10887 26.0712,4.06978 26.16867,-8.20761c-1.44006,-7.69386 -24.80524,-1.68683 -17.11871,-12.00552c8.46472,-3.46068 25.25064,4.69328 28.08694,-6.01672c-2.60098,-10.38488 -18.88208,-3.75697 -27.06567,-6.62572c-7.93304,1.63601 -10.02151,-8.79667 -1.11691,-7.22187c20.58035,-1.11093 41.30615,0.51939 61.8158,-1.74693c3.31439,-1.83496 5.76236,-13.12438 1.58353,-13.88474c-29.87921,-0.61855 -59.80954,-0.05054 -89.6409,-1.89613c-10.71751,-0.11092 -2.52832,-11.55639 5.38971,-8.86831c7.54471,-2.47005 10.53378,-8.94666 16.07062,-15.34309c2.83051,-13.9794 -10.7674,-8.79081 -16.32126,-4.69999c-6.20242,4.06505 -16.86638,12.50388 -22.52356,16.93234c-4.96094,3.58784 -16.38812,7.56671 -23.34007,12.37493c-5.94212,2.11143 -12.44463,1.06037 -18.27966,1.43905c0,18.94139 0,37.88278 0,56.82306c16.5106,7.19008 33.8856,13.50519 52.1902,12.78316c10.72144,-0.0448 21.75275,0.35683 32.19501,-2.4039l0,0zm-68.0276,6.07501c-8.42647,-3.23979 -16.83955,-6.51872 -25.19144,-9.94974c0.39781,-23.65472 0.79942,-47.3085 1.19914,-70.96143c6.66696,-0.25332 16.56223,3.05427 21.3148,-1.81583c12.77931,-4.1023 21.07956,-13.17436 32.28101,-19.98179c7.88148,-6.19554 14.18123,-8.30981 22.32082,-13.00787c6.18503,-2.86014 9.53571,-1.39995 16.49915,-0.15299c3.03513,4.97058 6.8085,7.54002 4.8501,17.0088c-4.07938,2.05486 -9.38083,15.85844 -1.35788,15.96938c22.33987,2.13904 45.03745,-0.8702 67.19943,2.87153c5.51758,7.47236 6.57138,24.25726 -3.53049,28.99452c-9.66571,2.79526 -19.85388,1.4076 -29.78522,1.7442c0,7.0686 1.16666,16.08791 -6.67844,19.63945c-5.79303,7.55434 -6.20035,18.65451 -15.53528,24.18164c-7.85074,8.04489 -19.02359,10.53021 -29.92691,10.2652c-17.8721,0.24297 -36.68925,1.95566 -53.6588,-4.80508l0,0l0,0z" fill-opacity="0" stroke-linecap="null" stroke-linejoin="null" stroke-dasharray="null" stroke-width="15" stroke="#666666" fill="#000000"/>
 </g>
</svg>
