<svg width="500" height="200" xmlns="http://www.w3.org/2000/svg" xmlns:svg="http://www.w3.org/2000/svg">
 <!-- Created with SVG-edit - https://github.com/SVG-Edit/svgedit-->
 <g class="layer">
  <title>Layer 1</title>
  <path transform="rotate(19.9358, 269.613, 106.349)" id="svg_2" d="m255.40604,78.35665c-0.35693,-0.53473 -0.80423,-1.06883 -1.36182,-1.47122c-2.45313,-1.76276 -5.88727,-1.22726 -7.64999,1.22602c-1.78369,2.45407 -1.22607,5.8664 1.20514,7.6509c2.23001,1.6059 5.17337,1.22712 7.06998,-0.66824l-51.79048,71.39558l-16.10374,58.43738l50.56329,-33.43469l115.11307,-158.71686l-34.45932,-25.00386l-11.10825,15.32335c-0.64767,-2.54194 -2.05255,-4.92883 -4.37192,-6.62423c-5.33014,-3.85917 -12.78085,-2.69944 -16.66107,2.65313c-22.1478,30.5573 -9.85791,38.69963 -30.44489,69.23273zm-25.36072,95.55346l-25.98465,17.21803l8.27501,-30.08768l17.70964,12.86964zm30.64584,-97.0922c15.94794,-23.57564 14.43137,-29.9762 28.08231,-50.89785c2.2518,1.56077 4.86108,2.09637 7.40436,1.96281l-35.48666,48.93504z" fill-opacity="0" stroke-linecap="null" stroke-linejoin="null" stroke-dasharray="null" stroke-width="15" stroke="#666666" fill="#000000"/>
 </g>
</svg>
