<svg width="200" height="200" xmlns="http://www.w3.org/2000/svg" xmlns:svg="http://www.w3.org/2000/svg">
  <!-- Created with SVG-edit - https://github.com/SVG-Edit/svgedit-->
 <g class="layer">
  <title>Layer 1</title>
  <path id="svg_1" d="m145.10258,29.32383c-11.70012,-11.36413 -24.31882,-20.46731 -34.67029,-21.70846c-0.56293,-0.08061 -1.14641,-0.12731 -1.76323,-0.14079l-68.12479,0c-1.08494,0 -2.15985,0.42225 -2.92488,1.20724c-0.75745,0.76457 -1.20779,1.83803 -1.20779,2.93144l0,172.74249c0,1.08621 0.42476,2.12656 1.20779,2.918c0.78558,0.77788 1.81936,1.20082 2.92488,1.20082l123.19346,0c1.08743,0 2.12643,-0.41583 2.91205,-1.20082c0.78583,-0.78511 1.22084,-1.8246 1.22084,-2.918l0,-114.94931c-0.24062,-13.34293 -10.69193,-27.89375 -22.76804,-40.08262zm14.4894,150.87935l-114.92759,0l0,-164.47751l64.01247,0l0,0.01342c2.78947,-0.16762 5.1976,2.58973 7.04256,8.8953c1.67608,6.00417 2.10088,13.83299 2.09338,19.26014c0.01276,3.97802 -0.18181,6.64778 -0.18181,6.64778l-0.32748,4.37412l4.39897,0.04671c0.02055,0 10.17223,0.12091 20.12695,2.3818c9.56604,2.06586 17.04604,6.18531 17.74211,10.8473c0.028,0.41581 0.03577,0.8317 0.028,1.22121l0,110.78973l-0.00755,0z" stroke-linecap="null" stroke-linejoin="null" stroke-dasharray="null" stroke-width="5" stroke="#000000" fill="#666666"/>
 </g>
</svg>
