<svg width="500" height="200" xmlns="http://www.w3.org/2000/svg" xmlns:svg="http://www.w3.org/2000/svg">
 <!-- Created with SVG-edit - https://github.com/SVG-Edit/svgedit-->

 <g class="layer">
  <title>Layer 1</title>
  <line opacity="0.6" id="svg_3" y2="9" x2="290" y1="81" x1="59" stroke-width="5" stroke="#000000" fill="none"/>
  <line id="svg_4" y2="194" x2="425" y1="182" x1="185" opacity="0.6" stroke-width="5" stroke="#000000" fill="none"/>
  <line id="svg_5" y2="196" x2="290" y1="182" x1="61" opacity="0.6" stroke-width="5" stroke="#000000" fill="none"/>
  <line id="svg_6" y2="30" x2="404" y1="77" x1="185" opacity="0.6" stroke-width="5" stroke="#000000" fill="none"/>
  <path id="svg_2" d="m402.38022,28.04885c-12.31055,-11.99205 -25.66446,-21.59851 -36.55276,-22.9079c-0.60037,-0.08508 -1.20657,-0.13466 -1.90021,-0.14887l-71.85233,0c-1.16577,0 -2.29074,0.44591 -3.11261,1.27428c-0.77524,0.80707 -1.2532,1.9396 -1.2532,3.09372l0,182.28562c0,1.14633 0.43134,2.24397 1.2532,3.0793c0.82187,0.8208 1.94684,1.26709 3.11261,1.26709l129.96609,0c1.16577,0 2.24994,-0.43886 3.11261,-1.26709c0.82184,-0.82845 1.25317,-1.92554 1.25317,-3.0793l0,-121.29986c-0.2623,-14.0801 -11.27884,-29.4348 -24.02658,-42.297zm15.29498,159.21474l-121.2811,0l0,-173.5643l67.57977,0l0,0.01421c2.93774,-0.17687 5.48495,2.73282 7.43179,9.38674c1.76614,6.33587 2.20331,14.59726 2.20331,20.32422c0,4.19789 -0.21567,7.01502 -0.21567,7.01502l-0.34973,4.61584l4.66891,0.04927c0,0 10.71344,0.12758 21.21121,2.51345c10.11307,2.17987 18.01706,6.52692 18.7515,11.44647c0,0.43883 0,0.87762 0,1.28873l0,116.91035l0,0z" stroke-width="5" stroke="#000000" fill="#666666"/>
  <path id="svg_1" d="m60.82751,80.62415l0,102.00001l123.30659,0l0,-102.00001l-123.30659,0zm103.8989,93.24769l-84.49115,0l0,-84.48828l84.49115,0l0,84.48828zm-63.9372,-51.37984c6.51211,0 11.79437,-5.28241 11.79437,-11.79826c0,-6.51534 -5.28226,-11.79778 -11.79437,-11.79778c-6.51913,0 -11.7979,5.28892 -11.7979,11.79778c0,6.51585 5.27877,11.79826 11.7979,11.79826zm59.37299,10.27846l-22.45663,-22.4596l-31.58881,31.58868l-8.75256,-8.75243l-12.57169,12.57147l0,23.58144l75.36969,0l0,-36.52956z" stroke-width="5" stroke="#000000" fill="#666666"/>
 </g>
</svg>
