<svg width="200" height="200" xmlns="http://www.w3.org/2000/svg" xmlns:svg="http://www.w3.org/2000/svg">
 <!-- Created with SVG-edit - https://github.com/SVG-Edit/svgedit-->

 <g class="layer">
  <title>Layer 1</title>
  <path transform="rotate(90, 100.484, 101.505)" id="svg_5" d="m8.98499,10.00498l137.24845,0l45.74971,91.49974l-45.74971,91.50027l-137.24845,0l45.74957,-91.50027l-45.74957,-91.49974z" fill-opacity="0" stroke-linecap="null" stroke-linejoin="null" stroke-dasharray="null" stroke-width="10" stroke="#666666" fill="#000000"/>
  <g id="svg_3">
   <path id="svg_1" d="m50.48001,78.82278l0,78.26035l94.61115,0l0,-78.26035l-94.61115,0zm79.71852,71.54343l-64.8259,0l0,-64.82613l64.8259,0l0,64.82613zm-49.05737,-39.42162c4.99662,0 9.05124,-4.05424 9.05124,-9.05082c0,-5.00067 -4.05463,-9.05087 -9.05124,-9.05087c-5.00028,0 -9.05122,4.05422 -9.05122,9.05087c0,4.9966 4.05093,9.05082 9.05122,9.05082zm45.55682,7.88459l-17.22961,-17.22948l-24.23785,24.23786l-6.71771,-6.71761l-9.64301,9.643l0,18.09906l57.82817,0l0,-28.03284l0,0z" stroke-width="5" stroke="#000000" fill="#666666"/>
   <path id="svg_2" d="m164.83298,48.23433l-11.18875,-7.03308c-2.82399,-1.7712 -6.54349,-0.91813 -8.32201,1.90437l-4.41034,7.02012l21.40486,13.44537l4.41318,-7.01771c1.77203,-2.82777 0.92575,-6.54854 -1.89694,-8.31905l0,-0.00002zm-62.01009,62.53583l21.40481,13.4451l34.88782,-55.54124l-21.41479,-13.44479l-34.87783,55.54094l0,-0.00001zm-3.27059,17.08283l-0.47281,12.62518l11.1723,-5.90781l10.38148,-5.48163l-20.65077,-12.97837l-0.43021,11.74263l0,0z" stroke-linecap="null" stroke-linejoin="null" stroke-dasharray="null" stroke-width="5" stroke="#000000" fill="#666666"/>
  </g>
 </g>
</svg>
