<svg width="500" height="200" xmlns="http://www.w3.org/2000/svg" xmlns:svg="http://www.w3.org/2000/svg">
 <!-- Created with SVG-edit - https://github.com/SVG-Edit/svgedit-->

 <g class="layer">
  <title>Layer 1</title>
  <path transform="rotate(-34.904, 120.546, 85.2776)" id="svg_1" d="m130.81609,142.34821c5.10258,-1.87445 9.28842,-3.61841 1.36162,-3.66939c-7.00105,0.94121 -25.11024,-5.97354 -10.59698,-9.37389c9.08112,-3.54578 29.74628,4.64406 29.85606,-9.36372c-1.64308,-8.77674 -28.29913,-1.92302 -19.52934,-13.69789c9.65645,-3.94804 28.80688,5.3568 32.04605,-6.86316c-2.97014,-11.84682 -21.54486,-4.28615 -30.88014,-7.5607c-9.05096,1.86639 -11.43443,-10.03357 -1.27681,-8.23846c23.48161,-1.26706 47.12846,0.59352 70.52951,-1.99216c3.77945,-2.09333 6.57338,-14.97372 1.8033,-15.84216c-34.08804,-0.70477 -68.23648,-0.05672 -102.27032,-2.16235c-12.22826,-0.12794 -2.8857,-13.18509 6.15028,-10.11866c8.60664,-2.81846 12.01678,-10.2089 18.33401,-17.50403c3.22757,-15.95049 -12.28577,-10.03 -18.62207,-5.36266c-7.0743,4.63745 -19.24332,14.26521 -25.69907,19.31944c-5.65855,4.09126 -18.69647,8.63132 -26.62787,14.11758c-6.77873,2.40822 -14.1972,1.20958 -20.85521,1.64233c0,21.60913 0,43.21905 0,64.8311c18.83687,8.20076 38.66008,15.40575 59.54391,14.58092c12.23302,-0.04875 24.81857,0.40865 36.73309,-2.74214l0,0l-0.00002,0zm-77.6118,6.92999c-9.61575,-3.69475 -19.21439,-7.43689 -28.74431,-11.35136c0.45674,-26.9864 0.91245,-53.97276 1.36813,-80.96054c7.60903,-0.28868 18.89796,3.48466 24.32064,-2.07073c14.57907,-4.68109 24.04529,-15.02893 36.82652,-22.79761c8.99451,-7.06822 16.17906,-9.48005 25.46939,-14.84125c7.05588,-3.26209 10.87657,-1.59649 18.82236,-0.17234c3.46614,5.671 7.76796,8.60141 5.53531,19.40532c-4.65816,2.34343 -10.7034,18.09167 -1.54877,18.21758c25.4854,2.44163 51.38106,-0.98997 76.66725,3.27802c6.29552,8.52369 7.49672,27.67372 -4.02676,33.08004c-11.02789,3.18786 -22.65475,1.6067 -33.98526,1.98994c-0.00107,8.06326 1.33185,18.35431 -7.61874,22.40489c-6.60896,8.61967 -7.07336,21.28403 -17.72296,27.59144c-8.95644,9.17752 -21.70695,12.01334 -34.14339,11.71162c-20.39261,0.27493 -41.858,2.2314 -61.21939,-5.48273l0,-0.00227l0,0l-0.00001,-0.00002l-0.00001,0z" stroke-linecap="null" stroke-linejoin="null" stroke-dasharray="null" stroke-width="7" stroke="#666666" fill="#666666"/>
  <rect id="svg_2" height="169.60289" width="270" y="14.89711" x="208" stroke-linecap="null" stroke-linejoin="null" stroke-dasharray="5" stroke-width="15" stroke="#666666" fill="none"/>
 </g>
</svg>
