<svg width="200" height="200" xmlns="http://www.w3.org/2000/svg" xmlns:svg="http://www.w3.org/2000/svg">
 <!-- Created with SVG-edit - https://github.com/SVG-Edit/svgedit-->
 <g class="layer">
  <title>Layer 1</title>
  <path stroke="#666666" id="svg_2" d="m138.66342,114.68451c6.10591,-10.06839 9.68677,-21.84771 9.69313,-34.47931c-0.00636,-36.84535 -29.84264,-66.68799 -66.66891,-66.70071c-36.83263,0.01272 -66.68163,29.85536 -66.68163,66.69435c0,36.81991 29.849,66.66255 66.68163,66.66255c12.63796,0 24.41728,-3.58086 34.48567,-9.68677l45.33638,45.33002l22.48374,-22.49646l-45.33002,-45.32366zm-56.97578,6.75466c-22.78268,-0.05088 -41.20217,-18.47038 -41.24034,-41.24034c0.03816,-22.78268 18.46402,-41.20217 41.24034,-41.25306c22.7636,0.05088 41.20217,18.47038 41.24034,41.25306c-0.04452,22.76996 -18.47674,41.18945 -41.24034,41.24034zm-30.7458,-53.96734l0,25.44765l61.47252,-0.00636l0,-25.43493l-61.47252,-0.00636z" stroke-linecap="null" stroke-linejoin="null" stroke-dasharray="null" stroke-width="7" fill="#999999"/>
 </g>
</svg>
