<svg width="200" height="200" xmlns="http://www.w3.org/2000/svg" xmlns:svg="http://www.w3.org/2000/svg">
 <!-- Created with SVG-edit - https://github.com/SVG-Edit/svgedit-->
 <g class="layer">
  <title>Layer 1</title>
  <path stroke="#666666" id="svg_1" d="m138.5993,114.80425c6.06991,-10.00903 9.62966,-21.71889 9.63598,-34.27601c-0.00632,-36.6281 -29.66668,-66.29478 -66.27581,-66.30743c-36.61546,0.01265 -66.28846,29.67932 -66.28846,66.3011c0,36.60281 29.673,66.26949 66.28846,66.26949c12.56345,0 24.27331,-3.55975 34.28234,-9.62966l45.06907,45.06275l22.35117,-22.36382l-45.06275,-45.05642zm-56.63983,6.71484c-22.64835,-0.05058 -40.95924,-18.36147 -40.99717,-40.99717c0.03794,-22.64835 18.35515,-40.95924 40.99717,-41.00982c22.62938,0.05058 40.95924,18.36147 40.99717,41.00982c-0.04426,22.6357 -18.3678,40.94659 -40.99717,40.99717zm12.63932,-71.56169l-25.29128,0l0,17.91255l-17.91255,0l0,25.29761l17.91255,0l0,17.91255l25.29128,0l0,-17.91888l17.90623,0l0,-25.28496l-17.91255,0l0,-17.91888l0.00632,0z" stroke-width="7" fill="#999999"/>
 </g>
</svg>
