<svg width="500" height="200" xmlns="http://www.w3.org/2000/svg" xmlns:svg="http://www.w3.org/2000/svg">
 <!-- Created with SVG-edit - https://github.com/SVG-Edit/svgedit-->
 <g class="layer">
  <title>Layer 1</title>
  <path id="svg_1" d="m86.36797,174.66458c-4.02111,-4.0213 -3.49361,-6.45639 6.28339,-28.99828c4.93698,-11.38254 8.97618,-21.0265 8.97618,-21.43066c0,-0.40444 -13.63247,-0.73514 -30.2945,-0.73514l-30.29456,0l0,-21.31831l0,-21.31837l30.53458,0c23.54395,0 30.27164,-0.64236 29.38671,-2.80526c-0.63142,-1.5426 -4.93811,-11.7802 -9.57043,-22.74997c-8.73183,-20.67864 -8.72924,-26.22414 0.01373,-27.94277c4.35075,-0.85546 72.09078,64.86878 74.41872,72.20483c-22.56322,26.19392 -49.53435,53.61186 -74.37895,77.7869c-1.31001,0 -3.59374,-1.21193 -5.07487,-2.69298z" stroke-linecap="null" stroke-linejoin="null" stroke-dasharray="null" stroke-width="10" stroke="#666666" fill="#999999"/>
  <path id="svg_2" d="m224.58273,160.30339c-3.27995,-3.28009 -2.84967,-5.26636 5.12523,-23.65332c4.02701,-9.28452 7.3217,-17.15091 7.3217,-17.48058c0,-0.3299 -11.11974,-0.59964 -24.71065,-0.59964l-24.71066,0l0,-17.38893l0,-17.38898l24.90645,0c19.20433,0 24.692,-0.52396 23.97017,-2.28819c-0.51503,-1.25827 -4.02792,-9.60888 -7.80641,-18.5567c-7.12239,-16.86717 -7.12027,-21.39052 0.0112,-22.79237c3.54883,-0.69778 58.80304,52.9122 60.7019,58.89607c-18.40436,21.36586 -40.40421,43.73015 -60.66946,63.44925c-1.06854,0 -2.93134,-0.98854 -4.13947,-2.19661z" stroke-linecap="null" stroke-linejoin="null" stroke-dasharray="null" stroke-width="10" stroke="#666666" fill="#999999"/>
  <path id="svg_3" d="m340.77457,141.88608c-2.40988,-2.40999 -2.09375,-3.86935 3.76566,-17.37881c2.95874,-6.82162 5.37946,-12.6013 5.37946,-12.84352c0,-0.24238 -8.16998,-0.44057 -18.15564,-0.44057l-18.1557,0l0,-12.77618l0,-12.77621l18.29956,0c14.10999,0 18.14194,-0.38497 17.6116,-1.68121c-0.37839,-0.92448 -2.95944,-7.05993 -5.73563,-13.63417c-5.23303,-12.39282 -5.23148,-15.71627 0.00824,-16.74625c2.60742,-0.51268 43.20441,38.87621 44.59955,43.27274c-13.52225,15.69816 -29.68622,32.12988 -44.57571,46.61811c-0.7851,0 -2.15375,-0.7263 -3.04138,-1.61392z" stroke-linecap="null" stroke-linejoin="null" stroke-dasharray="null" stroke-width="10" stroke="#666666" fill="#999999"/>
  <path id="svg_4" d="m430.05618,127.35193c-1.63647,-1.63655 -1.42181,-2.62756 2.55716,-11.80147c2.00922,-4.63238 3.65305,-8.55721 3.65305,-8.72169c0,-0.16459 -5.548,-0.29917 -12.32901,-0.29917l-12.32904,0l0,-8.67596l0,-8.67598l12.42673,0c9.58173,0 12.3197,-0.26143 11.95956,-1.14167c-0.25696,-0.62779 -2.00967,-4.7942 -3.8949,-9.25859c-3.55362,-8.41563 -3.55255,-10.6725 0.00558,-11.37193c1.77063,-0.34814 29.33896,26.39979 30.28635,29.38535c-9.18259,10.66019 -20.15909,21.81853 -30.27014,31.6571c-0.53314,0 -1.46255,-0.49321 -2.06534,-1.09598z" stroke-linecap="null" stroke-linejoin="null" stroke-dasharray="null" stroke-width="10" stroke="#666666" fill="#999999"/>
 </g>
</svg>
