<svg width="200" height="200" xmlns="http://www.w3.org/2000/svg" xmlns:svg="http://www.w3.org/2000/svg">
 <!-- Created with SVG-edit - https://github.com/SVG-Edit/svgedit-->
 <g class="layer">
  <title>Layer 1</title>
  <path id="svg_1" d="m14.29011,19c-3.78246,0 -6.82761,3.0451 -6.82761,6.82753l0,91.2413c0,3.78247 3.04515,6.82762 6.82761,6.82762l30.51082,0c-1.26099,1.44329 -1.95917,3.00964 -1.95917,4.65521c0,7.02982 12.63847,12.72421 28.24138,12.72421c15.60297,0 28.24146,-5.6944 28.24146,-12.72421c0,-1.64557 -0.6982,-3.21192 -1.95918,-4.65521l88.23492,0c3.78246,0 6.82762,-3.04515 6.82762,-6.82762l0,-91.2413c0,-3.78243 -3.04517,-6.82753 -6.82762,-6.82753l-171.31023,0zm33.51732,123.51712c-8.57311,0 -15.51739,3.33337 -15.51739,7.44838c0,4.11497 6.94428,7.44838 15.51739,7.44838c8.57302,0 15.51711,-3.3334 15.51711,-7.44838c0,-4.11501 -6.94409,-7.44838 -15.51711,-7.44838zm-15.51739,18.62083c-4.80094,0 -8.68956,2.49971 -8.68956,5.58604c0,3.0863 3.88862,5.58626 8.68956,5.58626c4.80097,0 8.68958,-2.49995 8.68958,-5.58626c0,-3.08633 -3.88861,-5.58604 -8.68958,-5.58604zm-14.89657,13.65509c-3.08633,0 -5.58609,1.38892 -5.58609,3.10341c0,1.71465 2.49976,3.10355 5.58609,3.10355c3.0865,0 5.58622,-1.3889 5.58622,-3.10355c0,-1.71449 -2.49972,-3.10341 -5.58622,-3.10341z" stroke-linecap="null" stroke-linejoin="null" stroke-dasharray="null" stroke-width="7" stroke="#666666" fill="#b2b2b2"/>
 </g>
</svg>
