<svg width="200" height="200" xmlns="http://www.w3.org/2000/svg" xmlns:svg="http://www.w3.org/2000/svg">
 <!-- Created with SVG-edit - https://github.com/SVG-Edit/svgedit-->
 <g class="layer">
  <title>Layer 1</title>
  <path id="svg_1" d="m9.54904,181.90439c0,-1.15788 1.39742,-2.09563 3.12247,-2.09563c1.72506,0 3.12247,0.93774 3.12247,2.09563c0,1.15781 -1.39742,2.09561 -3.12247,2.09561c-1.72506,0 -3.12247,-0.93781 -3.12247,-2.09561zm6.401,-15.05676c0,-2.89458 3.49338,-5.23907 7.80611,-5.23907c4.31273,0 7.80601,2.3445 7.80601,5.23907c0,2.89445 -3.49327,5.23897 -7.80601,5.23897c-4.31273,0 -7.80611,-2.34451 -7.80611,-5.23897zm14.83153,-22.82822c0,-8.00269 12.15684,-14.48477 27.16517,-14.48477c15.00829,0 27.1651,6.48209 27.1651,14.48477c0,8.00267 -12.15681,14.48477 -27.1651,14.48477c-15.00833,0 -27.16517,-6.4821 -27.16517,-14.48477zm-23.31407,-65.57089c0,-34.50198 41.64035,-62.44852 93.04813,-62.44852c51.4081,0 93.04847,27.94653 93.04847,62.44852c0,34.50197 -41.64037,62.44852 -93.04847,62.44852c-51.40778,0 -93.04813,-27.94655 -93.04813,-62.44852z" stroke-linecap="null" stroke-linejoin="null" stroke-dasharray="null" stroke-width="7" stroke="#666666" fill="#b2b2b2"/>
 </g>
</svg>
