<?xml version="1.0" encoding="UTF-8"?>
<svg width="640" height="480.00000000000006" xmlns="http://www.w3.org/2000/svg" xmlns:svg="http://www.w3.org/2000/svg">
 <!-- Created with SVG-edit - https://github.com/SVG-Edit/svgedit-->

 <g class="layer">
  <title>Layer 1</title>
  <path transform="translate(-0.949219)" id="svg_1" d="m3.985899,24.435261l0,0c0,11.796005 28.877401,21.358517 64.499559,21.358517c35.622116,0 64.499664,-9.562511 64.499664,-21.358517l0,0c0,-11.796053 28.87735,-21.358621 64.499542,-21.358621c35.621994,0 64.499313,9.562568 64.499313,21.358621l0,170.868328c0,-11.796036 -28.877319,-21.358459 -64.499313,-21.358459c-35.622192,0 -64.499542,9.562424 -64.499542,21.358459c0,11.796021 -28.877548,21.358505 -64.499664,21.358505c-35.622158,0 -64.499559,-9.562485 -64.499559,-21.358505l0,-170.868328z" stroke-width="5" stroke="#666666" fill="#FF0000"/>
 </g>
</svg>