<svg width="200" height="200" xmlns="http://www.w3.org/2000/svg" xmlns:svg="http://www.w3.org/2000/svg">
  <!-- Created with SVG-edit - https://github.com/SVG-Edit/svgedit-->

  <g class="layer">
   <title>Layer 1</title>
   <path id="svg_2" d="m161.96248,77.81377c0.13522,-1.39392 0.21214,-2.79886 0.21214,-4.21997c0,-24.63662 -19.81967,-44.60679 -44.27355,-44.60679c-18.97659,0 -35.12115,12.05563 -41.41878,28.97104c-4.17221,-4.61204 -10.12257,-7.55788 -16.80249,-7.55788c-12.59519,0 -22.80293,10.2831 -22.80293,22.97302c0,1.49748 0.16347,2.96223 0.43915,4.37524c-16.80261,2.79064 -29.65988,17.3864 -29.65988,35.09963c0,19.71397 15.86083,35.68478 35.41971,35.68478l16.37689,0c-0.89167,-1.89775 -1.41591,-3.9668 -1.41591,-6.12871c0,-3.81964 1.47272,-7.42435 4.15734,-10.10069l30.63813,-30.89584c2.65627,-2.68993 6.21247,-4.17637 10.00908,-4.17637c3.82509,0 7.38129,1.50017 10.03751,4.19009l30.62318,30.89588c2.67123,2.66258 4.14389,6.26729 4.14389,10.08693c0,2.16724 -0.51743,4.2392 -1.41728,6.12871l9.29437,0c19.56567,0 35.41974,-15.97081 35.41974,-35.68478c0.01344,-17.49273 -12.49655,-31.98232 -28.9803,-35.03429zm-54.11247,28.63332c-1.36731,-1.39116 -3.18865,-2.07722 -5.00183,-2.07722s-3.6264,0.68606 -5.00863,2.07722l-30.65157,30.90411c-2.76165,2.77432 -2.75499,7.31552 0.00806,10.0898l3.93855,3.96141c2.76167,2.77701 6.82857,3.20433 9.03904,0.97737s4.02365,-0.84947 4.02365,3.08461l0,8.83467c0,3.91788 3.19408,7.13873 7.08255,7.13873l23.12854,0c3.90341,0 7.08395,-3.22086 7.08395,-7.13873l0,-8.83467c0,-3.93408 1.81459,-5.31174 4.03168,-3.08461c2.20914,2.22696 6.28278,1.79964 9.0377,-0.97737l3.93849,-3.96141c2.76308,-2.77428 2.76308,-7.31548 0.00813,-10.0898l-30.65831,-30.90411z" stroke-linecap="null" stroke-linejoin="null" stroke-dasharray="null" stroke-width="5" stroke="#000000" fill="#666666"/>
  </g>
 </svg>
