<svg width="200" height="200" xmlns="http://www.w3.org/2000/svg" xmlns:svg="http://www.w3.org/2000/svg">
  <!-- Created with SVG-edit - https://github.com/SVG-Edit/svgedit-->
<g class="layer">
 <title>Layer 1</title>
 <path id="svg_4" d="m164.40013,120.8468l13.07524,-7.54018l13.0676,-7.54007l-13.07526,-7.54575l-13.06758,-7.54014l0,8.38538c-3.20241,0 -6.92503,0 -8.17201,0c-5.94447,0.1674 -13.28307,-4.50792 -21.08887,-10.54173c-2.91089,-2.11439 -5.84688,-4.438 -8.9586,-6.54134c3.11172,-2.10336 6.04423,-4.42702 8.9586,-6.54156c7.8058,-6.02254 15.14439,-10.70901 21.08192,-10.53604l8.17896,-0.00556l0,8.3965l13.06758,-7.5429l13.07526,-7.54857l-13.07526,-7.55676l-13.06758,-7.54568l0,8.39083l-8.17549,0c-12.14212,0.17302 -21.21719,7.38115 -29.15901,13.24191c-7.88255,6.18452 -14.96864,10.84307 -19.07834,10.53899l-23.44432,0l0,13.39535l23.45164,0c4.10584,-0.30128 11.19546,4.35448 19.07871,10.53877c7.93761,5.86369 17.0092,13.07184 29.1548,13.24208l8.17201,0l0,8.39645l0,0z" stroke-width="5" stroke="#000000" fill="#666666"/>
 <path id="svg_5" d="m164.54173,168.2511l13.07524,-7.54018l13.0676,-7.54007l-13.07526,-7.54575l-13.06758,-7.54015l0,8.38539c-3.20241,0 -6.92503,0 -8.17201,0c-5.94447,0.1674 -13.28307,-4.50792 -21.08887,-10.54173c-2.91089,-2.11438 -5.84688,-4.43799 -8.95859,-6.54132c3.11171,-2.10337 6.04422,-4.42702 8.95859,-6.54157c7.8058,-6.02254 15.14439,-10.70901 21.08192,-10.53604l8.17896,-0.00556l0,8.3965l13.06758,-7.5429l13.07526,-7.54857l-13.07526,-7.55676l-13.06758,-7.54568l0,8.39083l-8.17549,0c-12.14212,0.17302 -21.21719,7.38115 -29.15901,13.24191c-7.88255,6.18452 -14.96864,10.84307 -19.07834,10.53899l-23.44432,0l0,13.39535l23.45164,0c4.10583,-0.30128 11.19545,4.35449 19.0787,10.53877c7.93761,5.86369 17.0092,13.07184 29.1548,13.24208l8.17201,0l0,8.39645l0,0z" stroke-width="5" stroke="#000000" fill="#666666"/>
 <path id="svg_1" d="m86.82469,144.35672l13.07525,-7.54018l13.06759,-7.54007l-13.07526,-7.54575l-13.06757,-7.54014l0,8.38538c-3.20242,0 -6.92503,0 -8.17201,0c-5.94447,0.1674 -13.28307,-4.50792 -21.08887,-10.54173c-2.91089,-2.11439 -5.84687,-4.438 -8.95859,-6.54134c3.11171,-2.10336 6.04422,-4.42702 8.95859,-6.54156c7.80581,-6.02254 15.1444,-10.70901 21.08193,-10.53604l8.17896,-0.00556l0,8.3965l13.06757,-7.5429l13.07526,-7.54857l-13.07526,-7.55676l-13.06757,-7.54568l0,8.39083l-8.1755,0c-12.14212,0.17302 -21.21718,7.38115 -29.159,13.24191c-7.88255,6.18452 -14.96865,10.84307 -19.07835,10.53899l-23.44432,0l0,13.39535l23.45164,0c4.10584,-0.30128 11.19546,4.35448 19.07872,10.53877c7.9376,5.86369 17.00919,13.07184 29.1548,13.24208l8.17201,0l0,8.39645l0,0z" stroke-width="5" stroke="#000000" fill="#666666"/>
</g>
</svg>
