<svg width="500" height="200" xmlns="http://www.w3.org/2000/svg" xmlns:svg="http://www.w3.org/2000/svg">
 <!-- Created with SVG-edit - https://github.com/SVG-Edit/svgedit-->

 <g class="layer">
  <title>Layer 1</title>
  <path fill="#000000" stroke="#666666" stroke-width="15" stroke-dasharray="null" stroke-linejoin="null" stroke-linecap="null" fill-opacity="0" d="m152.40604,70.35665c-0.35693,-0.53473 -0.80423,-1.06883 -1.36182,-1.47122c-2.45313,-1.76276 -5.88727,-1.22726 -7.64999,1.22602c-1.78369,2.45407 -1.22607,5.8664 1.20514,7.6509c2.23001,1.6059 5.17337,1.22712 7.07001,-0.66824l-51.79051,71.39558l-16.10374,58.43738l50.56329,-33.43468l115.11307,-158.71687l-34.45932,-25.00386l-11.10825,15.32335c-0.64767,-2.54194 -2.05255,-4.92883 -4.37192,-6.62423c-5.33014,-3.85917 -12.78085,-2.69944 -16.66107,2.65313c-22.1478,30.5573 -9.85791,38.69963 -30.44489,69.23273l0,0.00001zm-25.36072,95.55346l-25.98465,17.21803l8.27501,-30.08768l17.70964,12.86963l0,0.00002zm30.64584,-97.0922c15.94794,-23.57564 14.43137,-29.9762 28.08231,-50.89785c2.2518,1.56077 4.86108,2.09637 7.40436,1.96281l-35.48666,48.93504z" id="svg_2" transform="rotate(-91.243, 166.613, 98.3494)"/>
  <path id="svg_1" d="m400.80331,33.70995c-11.08759,-10.79973 -23.11145,-19.44965 -32.91663,-20.62911c-0.5451,-0.07657 -1.08984,-0.1216 -1.71201,-0.13376l-64.70551,0c-1.05157,0 -2.06204,0.40124 -2.80136,1.14783c-0.70151,0.72588 -1.12854,1.74608 -1.12854,2.78567l0,164.15251c0,1.03232 0.38922,2.02086 1.12854,2.77225c0.73932,0.74049 1.74979,1.14174 2.80136,1.14174l117.03909,0c1.0498,0 2.02176,-0.39519 2.79959,-1.14174c0.73914,-0.74536 1.13031,-1.73386 1.13031,-2.77225l0,-109.2336c-0.23456,-12.67949 -10.15625,-26.50678 -21.63486,-38.08954zm13.77344,143.37628l-109.21722,0l0,-156.29776l60.85352,0l0,0.01216c2.64551,-0.15924 4.94214,2.46103 6.69366,8.45303c1.59457,5.70508 1.983,13.14514 1.983,18.30181c0,3.78027 -0.19421,6.31786 -0.19421,6.31786l-0.31052,4.15601l4.20282,0.04499c0,0 9.64844,0.11548 19.10284,2.2628c9.10461,1.96369 16.22473,5.87763 16.88611,10.30849c0,0.39515 0,0.79034 0,1.16002l0,105.28059l0,0z" fill-opacity="0" stroke-linecap="null" stroke-linejoin="null" stroke-dasharray="null" stroke-width="10" stroke="#666666" fill="#000000"/>
 </g>
</svg>
