<svg width="200" height="200" xmlns="http://www.w3.org/2000/svg" xmlns:svg="http://www.w3.org/2000/svg">
  <!-- Created with SVG-edit - https://github.com/SVG-Edit/svgedit-->
  <g class="layer">
   <title>Layer 1</title>
   <path id="svg_1" d="m190.4521,67.94923c-0.02681,-14.7536 -11.97511,-26.7081 -26.72229,-26.72595l0,-0.00789l-81.90123,0c-3.37352,-10.83802 -13.43688,-18.76294 -25.42479,-18.7832l-19.2103,0c-14.7536,0.0127 -26.70827,11.9751 -26.73505,26.72837l0,94.80439c0.02678,14.74063 11.98145,26.69545 26.73505,26.72083l126.54403,0c14.73306,-0.02538 26.69414,-11.98019 26.72092,-26.72083l0,-76.01573l-0.00633,0zm-153.25861,-32.16041l19.2103,0c6.98936,-0.02541 12.80986,5.57453 13.25089,12.53576l0.38741,6.26048l93.69543,0c7.30283,0.01511 13.34387,6.0562 13.35658,13.36417l0,3.30859c-3.94824,-2.30438 -8.47275,-3.72162 -13.36429,-3.72916l-126.54267,0c-4.89149,0.00755 -9.42232,1.42993 -13.36434,3.73672l0,-22.11237c0.02043,-7.31038 6.06015,-13.34909 13.3707,-13.36419zm126.53632,121.53277l-126.53632,0c-7.30419,-0.01257 -13.34392,-6.06645 -13.3707,-13.36443l0,-49.69982l0.00635,0c0.01408,-7.31825 6.0538,-13.35661 13.36434,-13.37202l126.54403,0c7.30283,0.01542 13.30315,6.02081 13.3631,13.30579l0,49.76129c-0.02682,7.31546 -6.06674,13.35661 -13.3708,13.36919z" stroke-linecap="null" stroke-linejoin="null" stroke-dasharray="null" stroke-width="5" stroke="#000000" fill="#666666"/>
  </g>
</svg>
