<svg width="100" height="100" xmlns="http://www.w3.org/2000/svg" xmlns:svg="http://www.w3.org/2000/svg">
 <!-- Created with SVG-edit - https://github.com/SVG-Edit/svgedit-->

 <g class="layer">
  <title>Layer 1</title>
  <path fill="#666666" stroke="#000000" stroke-width="5" stroke-dasharray="null" stroke-linejoin="null" stroke-linecap="null" d="m71.572,16.00796c-5.65628,-5.4945 -11.75687,-9.89529 -16.76141,-10.49532c-0.27235,-0.03897 -0.55459,-0.06189 -0.85293,-0.06807l-32.93575,0c-0.52535,0 -1.04437,0.20413 -1.41398,0.58398c-0.36653,0.36931 -0.58381,0.88831 -0.58381,1.41724l0,83.51487c0,0.52524 0.20429,1.02814 0.58381,1.4105c0.37936,0.37669 0.87889,0.58086 1.41398,0.58086l59.56,0c0.52551,0 1.02811,-0.20103 1.40764,-0.58086c0.37936,-0.37921 0.59032,-0.88216 0.59032,-1.4105l0,-55.57411c-0.11678,-6.45088 -5.16991,-13.48571 -11.00787,-19.37859zm-2.81188,2.8283c2.61083,2.54928 4.95893,5.43574 6.71037,8.21825c-1.51793,-0.60008 -3.11038,-1.04421 -4.60555,-1.39806c-3.29195,-0.73926 -6.51244,-1.03742 -8.51364,-1.15743c0.00977,-0.43179 0.01299,-0.91802 0.01299,-1.44695c0,-2.81838 -0.17829,-6.83689 -1.15464,-10.37842c-0.00972,-0.03216 -0.01623,-0.06495 -0.02907,-0.09714c2.47786,1.63441 5.17624,3.80448 7.57954,6.25975zm9.81748,70.11643l-55.56423,0l0,-79.51871l30.94756,0l0,0.00618c1.34917,-0.08103 2.51356,1.25211 3.40545,4.30059c0.81084,2.90256 1.01513,6.68781 1.0119,9.31133c0.00647,1.92327 -0.08755,3.21429 -0.08755,3.21429l-0.15897,2.11442l2.1277,0.02291c0.00975,0 4.9167,0.05875 9.72982,1.15119c4.62505,0.99907 8.24127,2.99039 8.57858,5.24462c0.01299,0.20103 0.01624,0.40207 0.01299,0.59014l0,53.56305l-0.00327,0l0.00001,-0.00001l0.00001,0z" id="svg_1"/>
  <text transform="matrix(0.848048, 0, 0, 1.66856, 11.7978, -47.5815)" xml:space="preserve" text-anchor="middle" font-weight="bold" font-family="serif" font-size="24" id="svg_2" y="71.18071" x="46.00535" stroke-width="0" stroke="#000000" fill="#000000">PDF</text>
 </g>
</svg>
