<svg width="100" height="100" xmlns="http://www.w3.org/2000/svg" xmlns:svg="http://www.w3.org/2000/svg">
 <!-- Created with SVG-edit - https://github.com/SVG-Edit/svgedit-->

 <g class="layer">
  <title>Layer 1</title>
  <path fill="#666666" stroke="#000000" stroke-width="5" stroke-dasharray="null" stroke-linejoin="null" stroke-linecap="null" d="m8.50249,33.18121l0,33.75258l19.21423,0l28.76402,23.62144l0.01711,-80.99548l-28.7681,23.62146l-19.22725,0l-0.00001,0zm59.02377,-3.88092c-1.67992,-1.66329 -4.37704,-1.66329 -6.04842,0.00811c-1.66733,1.67147 -1.66733,4.37746 0.00858,6.05293l0,-0.00808c3.68887,3.69336 5.96278,8.75814 5.96278,14.38785c0,5.62579 -2.26942,10.67417 -5.95426,14.36757c-1.68444,1.66244 -1.68444,4.36857 -0.00853,6.04807c0.83364,0.83407 1.92779,1.25233 3.02194,1.25233c1.09869,0 2.1928,-0.41827 3.02647,-1.25233c5.22378,-5.21478 8.46385,-12.46049 8.45934,-20.41564c0.00451,-7.97212 -3.2486,-15.22605 -8.46793,-20.44081l0.00002,0zm9.81034,-9.8059c-1.67993,-1.67139 -4.37705,-1.67139 -6.03986,0c-1.67591,1.67148 -1.67591,4.38155 0,6.04407c6.19804,6.20294 10.01945,14.7344 10.01945,24.19862c0,9.4552 -3.82141,17.98347 -10.01089,24.19045c-1.67594,1.6666 -1.67594,4.3726 0,6.04404c0.83321,0.83321 1.92783,1.25227 3.02644,1.25227c1.09418,0 2.18835,-0.41906 3.02198,-1.25227c7.72841,-7.73252 12.52047,-18.44501 12.51186,-30.2345c0.00406,-11.79768 -4.78753,-22.51827 -12.52898,-30.24269l0.00001,0.00001z" id="svg_3"/>
 </g>
</svg>
