<?xml version="1.0" encoding="UTF-8"?>
<svg width="250" height="200" xmlns="http://www.w3.org/2000/svg" xmlns:svg="http://www.w3.org/2000/svg">
 <!-- Created with SVG-edit - https://github.com/SVG-Edit/svgedit-->

 <g class="layer">
  <title>Layer 1</title>
  <path id="svg_1" d="m131.06247,174.65344c-2.09001,0.19691 -4.22664,0.33159 -6.42442,0.33159l0,0c-1.96546,0 -3.87522,-0.10437 -5.73769,-0.2637l0,0l-16.12878,20.7289l-3.9663,-1.12463c-4.65549,-1.30862 -9.17747,-2.94719 -13.52569,-4.91292l0,0l-3.76966,-1.70816l0.96999,-26.04025c-3.42774,-2.39566 -6.62579,-5.06783 -9.58749,-7.99762l0,0l-25.49997,5.47888l-2.32885,-3.4205c-2.73194,-4.01689 -5.06081,-8.22372 -7.12498,-12.48077l0,0l-1.79215,-3.71573l17.31395,-19.16271c-1.08253,-4.05914 -1.79945,-8.24835 -2.16938,-12.51695l0,0l-22.94425,-12.12942l0.41691,-4.10938c0.49228,-4.91897 1.44335,-9.6235 2.57974,-14.14416l0,0l1.01442,-4.01109l25.59171,-3.54356c1.82494,-3.85065 3.97358,-7.49854 6.39383,-10.93211l0,0l-9.76552,-24.03935l2.94751,-2.88651c3.46526,-3.37733 7.17412,-6.43605 11.04463,-9.231l0,0l3.35241,-2.42026l22.09149,13.87473c3.7227,-1.71389 7.61687,-3.12665 11.65127,-4.20678l0,0l8.00796,-24.85003l4.1283,-0.31277c2.2233,-0.1664 4.61335,-0.35738 7.21166,-0.35738l0,0c2.59104,0 4.97379,0.19098 7.19748,0.35738l0,0l4.12788,0.31277l8.09499,25.10782c3.87961,1.08122 7.64023,2.4623 11.24352,4.13998l0,0l22.40059,-14.07155l3.36441,2.42007c3.87057,2.79405 7.58627,5.85968 11.04468,9.21826l0,0l2.95874,2.88762l-10.06491,24.75754c2.19279,3.18761 4.17035,6.55894 5.85945,10.10844l0,0l26.39058,3.65503l1.0264,4.00982c1.15245,4.51482 2.09915,9.21939 2.57942,14.14543l0,0l0.41689,4.10835l-23.74521,12.55447c-0.35614,3.89374 -0.98868,7.72569 -1.93291,11.46025l0,0l17.89041,19.76473l-1.79956,3.73355c-2.05678,4.26883 -4.37383,8.48837 -7.11742,12.49219l0,0l-2.3291,3.40919l-26.13269,-5.60083c-2.76955,2.76923 -5.76828,5.31845 -8.97322,7.62129l0,0l0.99539,26.55125l-3.77899,1.70683c-4.35304,1.95966 -8.86763,3.60545 -13.52322,4.91425l0,0l-3.98044,1.12344l-16.16379,-20.78394l0,0zm20.73921,6.65144c1.39409,-0.46625 2.76468,-0.96417 4.12141,-1.49834l0,0l-0.93251,-25.07729l2.94017,-1.88504c4.40474,-2.86163 8.41583,-6.2894 11.97717,-10.18318l0,0l2.37071,-2.59834l24.72728,5.29494c0.74278,-1.24055 1.46198,-2.51285 2.15555,-3.80846l0,0l-16.91331,-18.70113l1.04932,-3.34216c1.49251,-4.80877 2.34055,-9.96777 2.59143,-15.35429l0,0l0.15479,-3.50599l22.46611,-11.87273c-0.2345,-1.43753 -0.50392,-2.86777 -0.81091,-4.29931l0,0l-24.99629,-3.45809l-1.34509,-3.23683c-2.00993,-4.8334 -4.6694,-9.35989 -7.84421,-13.53609l0,0l-2.099,-2.7822l9.50775,-23.38811c-1.10149,-0.96418 -2.23055,-1.90358 -3.39026,-2.81278l0,0l-21.22212,13.32183l-3.12553,-1.6458c-4.62961,-2.439 -9.63647,-4.28758 -14.91731,-5.49193l0,0l-3.41614,-0.77902l-7.66342,-23.76877c-0.74493,-0.0375 -1.46922,-0.05626 -2.17415,-0.05626l0,0c-0.71948,0 -1.44334,0.01876 -2.19297,0.05626l0,0l-7.60999,23.61531l-3.4649,0.73696c-5.37479,1.15386 -10.49639,3.03402 -15.26884,5.50231l0,0l-3.11861,1.62121l-20.87753,-13.1121c-1.1528,0.9092 -2.28445,1.8486 -3.37607,2.81278l0,0l9.25431,22.77424l-2.1741,2.78799c-3.3903,4.35447 -6.20889,9.12104 -8.32221,14.24267l0,0l-1.33775,3.24949l-24.19277,3.34693c-0.30695,1.43154 -0.57858,2.86178 -0.80579,4.29931l0,0l21.68805,11.46722l0.13364,3.53088c0.22721,5.70619 1.18081,11.17811 2.82077,16.29501l0,0l1.07304,3.36552l-16.37927,18.11768c0.6889,1.3028 1.40582,2.57373 2.15555,3.81429l0,0l24.05227,-5.17772l2.39441,2.59798c3.69026,4.0358 7.90525,7.54784 12.54882,10.46008l0,0l2.99659,1.87303l-0.91611,24.68971c1.35887,0.53416 2.73415,1.03209 4.12798,1.49834l0,0l15.22431,-19.57962l3.47701,0.42976c2.62162,0.33147 5.1777,0.54703 7.71989,0.54703l0,0c2.73411,0 5.49187,-0.24005 8.31013,-0.6394l0,0l3.50758,-0.49092l15.34113,19.73315l0,0zm6.9422,-50.84113l3.35275,5.15324l-21.26895,13.83713l-7.54875,-11.61497l0,0c-2.7462,0.67021 -5.63255,1.06242 -8.63609,1.06242l0,0c-20.784,0 -37.62499,-16.84645 -37.62499,-37.60595l0,0c0,-20.78394 16.84099,-37.62474 37.62499,-37.62474l0,0c20.7606,0 37.60599,16.8408 37.60599,37.62474l0,0c0,8.53178 -2.86774,16.43564 -7.67546,22.74964l0,0l4.17052,6.41849m-14.31042,1.98328l0.66312,-0.42426l-6.06367,-9.32811l3.51447,-3.5131c4.59441,-4.60743 7.41298,-10.88996 7.41298,-17.88594l0,0c-0.02585,-13.99071 -11.35152,-25.31624 -25.3223,-25.34087l0,0c-14.00342,0.02464 -25.31754,11.33852 -25.34084,25.34087l0,0c0.02331,13.9731 11.34908,25.29878 25.34084,25.32341l0,0c3.12556,0 6.13388,-0.63959 9.04608,-1.7572l0,0l4.6436,-1.78076l6.10573,9.36596l0,0z" stroke-width="5" stroke="#000000" fill="#FF0000"/>
 </g>
</svg>
