<svg width="100" height="100" xmlns="http://www.w3.org/2000/svg" xmlns:svg="http://www.w3.org/2000/svg">
 <!-- Created with SVG-edit - https://github.com/SVG-Edit/svgedit-->
 <g class="layer">
  <title>Layer 1</title>
  <path id="svg_1" d="m51.47485,15.44718c-25.12905,0 -45.49985,15.27839 -45.49985,34.12548c0,6.43824 2.40796,12.45726 6.55192,17.5956l-6.55192,14.36469l18.24212,-4.68017c7.60171,4.27728 17.0203,6.84477 27.25773,6.84477c25.12912,0 45.50015,-15.27841 45.50015,-34.1249s-20.37103,-34.12548 -45.50015,-34.12548zm-7.46191,47.22933l-7.59862,7.59175l-20.89735,-20.90076l20.89425,-20.90388l7.60172,7.60848l-13.29568,13.29541l13.29568,13.30902zm22.98087,7.58237l-7.59556,-7.60216l13.29914,-13.29235l-13.29914,-13.29913l7.59556,-7.60163l20.89736,20.88467l-20.89736,20.9106z" stroke-linecap="null" stroke-linejoin="null" stroke-dasharray="null" stroke-width="5" stroke="#000000" fill="#666666"/>
 </g>
</svg>
