<svg width="100" height="100" xmlns="http://www.w3.org/2000/svg" xmlns:svg="http://www.w3.org/2000/svg">
 <!-- Created with SVG-edit - https://github.com/SVG-Edit/svgedit-->
 <g class="layer">
  <title>Layer 1</title>
  <path id="svg_1" d="m50.21468,13.91653c-5.92065,5.92264 -8.22652,14.00587 -7.12204,21.69632l10.97247,-10.97252c0.01593,-0.01809 0.05376,-0.02813 0.05907,-0.04223c0.74008,-1.41644 1.63018,-2.77331 2.82095,-3.95786c6.2319,-6.24174 16.34614,-6.23834 22.5887,0c6.2366,6.23171 6.24722,16.35013 0.01062,22.59593c-1.19608,1.19458 -2.55809,2.08417 -3.97918,2.82558c-0.01128,0.00673 -0.0219,0.02074 -0.03252,0.03485l-10.97778,10.97651c7.69024,1.11081 15.78864,-1.19525 21.70928,-7.11051c9.95358,-9.95292 9.9423,-26.08849 0,-36.04208c-9.96421,-9.9535 -26.09595,-9.9535 -36.04958,-0.00398zm-3.90419,61.3871c-0.73477,1.42316 -1.62486,2.77996 -2.81562,3.97453c-6.23724,6.23513 -16.36209,6.23513 -22.59935,0c-6.24239,-6.23502 -6.24239,-16.35342 0,-22.59858c1.19077,-1.18785 2.54747,-2.07744 3.96325,-2.81215c0.01062,-0.02073 0.01593,-0.04221 0.03783,-0.0563l10.96716,-10.97586c-7.68558,-1.11079 -15.778,1.20197 -21.69318,7.11322c-9.94828,9.95021 -9.94297,26.08916 0,36.04273c9.95873,9.9502 26.09582,9.9502 36.04941,0c5.92067,-5.91863 8.23185,-14.00924 7.11144,-21.70299l-10.98376,10.97648c-0.01062,0.02483 -0.02124,0.0315 -0.03717,0.03893zm-17.98164,-11.18367l7.72209,7.72123c1.8877,1.88777 4.98209,1.88777 6.86448,0l29.17977,-29.17817c1.89302,-1.88372 1.89302,-4.98013 0.00531,-6.86051l-7.72806,-7.72188c-1.88237,-1.89443 -4.97675,-1.89443 -6.85914,-0.00673l-29.17913,29.18156c-1.89301,1.8877 -1.89301,4.98078 -0.00531,6.86449z" stroke-width="5" stroke="#000000" fill="#666666"/>
 </g>
</svg>
