<svg width="100" height="100" xmlns="http://www.w3.org/2000/svg" xmlns:svg="http://www.w3.org/2000/svg">
 <!-- Created with SVG-edit - https://github.com/SVG-Edit/svgedit-->
 <g class="layer">
  <title>Layer 1</title>
  <path id="svg_1" d="m50.37135,24.94963c-25.9213,0 -46.37385,26.49877 -46.37385,26.49877s20.45255,26.50124 46.37385,26.50124c19.82407,0 46.37405,-26.50124 46.37405,-26.50124s-26.54998,-26.49877 -46.37405,-26.49877zm0,43.01085c-9.09952,0 -16.51254,-7.40891 -16.51254,-16.51208s7.41302,-16.51228 16.51254,-16.51228s16.51257,7.41273 16.51257,16.51228s-7.41289,16.51208 -16.51257,16.51208zm0,-26.15135c-5.32096,0 -9.63889,4.31501 -9.63889,9.63927c0,5.32403 4.31448,9.63908 9.63889,9.63908c5.32444,0 9.63889,-4.31505 9.63889,-9.63908c0,-5.32156 -4.31445,-9.63927 -9.63889,-9.63927z" stroke-linecap="null" stroke-linejoin="null" stroke-dasharray="null" stroke-width="5" stroke="#000000" fill="#666666"/>
 </g>
</svg>
